<?xml version="1.0" encoding="utf-8" standalone="no"?>
<svg xmlns:xsd="http://www.w3.org/2001/XMLSchema" xmlns:xsi="http://www.w3.org/2001/XMLSchema-instance" fill="#dbf3ff" width="1440px" height="900px" xmlns:xlink="http://www.w3.org/1999/xlink" xmlns="http://www.w3.org/2000/svg">
  <line class="link" y2="543" x2="935" y1="625" x1="966" />
  <line class="link" y2="770" x2="526" y1="750" x1="479" />
  <line class="link" y2="725" x2="565" y1="770" x1="526" />
  <line class="link" y2="819" x2="530" y1="770" x1="526" />
  <line class="link" y2="796" x2="492" y1="770" x1="526" />
  <line class="link" y2="405" x2="735" y1="339" x1="731" />
  <line class="link" y2="307" x2="715" y1="339" x1="731" />
  <line class="link" y2="413" x2="662" y1="405" x1="735" />
  <line class="link" y2="413" x2="662" y1="402" x1="692" />
  <line class="link" y2="405" x2="735" y1="402" x1="692" />
  <line class="link" y2="390" x2="644" y1="402" x1="692" />
  <line class="link" y2="405" x2="735" y1="357" x1="704" />
  <line class="link" y2="390" x2="644" y1="416" x1="634" />
  <line class="link" y2="514" x2="601" y1="416" x1="634" />
  <line class="link" y2="645" x2="637" y1="646" x1="675" />
  <line class="link" y2="611" x2="736" y1="646" x1="675" />
  <line class="link" y2="543" x2="935" y1="438" x1="964" />
  <line class="link" y2="612" x2="645" y1="569" x1="656" />
  <line class="link" y2="576" x2="635" y1="612" x1="645" />
  <line class="link" y2="612" x2="645" y1="576" x1="635" />
  <line class="link" y2="514" x2="601" y1="573" x1="569" />
  <line class="link" y2="484" x2="550" y1="515" x1="537" />
  <line class="link" y2="514" x2="601" y1="515" x1="537" />
  <line class="link" y2="484" x2="550" y1="511" x1="567" />
  <line class="link" y2="514" x2="601" y1="441" x1="619" />
  <line class="link" y2="416" x2="634" y1="441" x1="619" />
  <line class="link" y2="390" x2="644" y1="441" x1="619" />
  <line class="link" y2="413" x2="662" y1="484" x1="550" />
  <line class="link" y2="348" x2="865" y1="392" x1="880" />
  <line class="link" y2="451" x2="916" y1="392" x1="880" />
  <line class="link" y2="392" x2="880" y1="348" x1="865" />
  <line class="link" y2="451" x2="916" y1="348" x1="865" />
  <line class="link" y2="665" x2="419" y1="630" x1="449" />
  <line class="link" y2="578" x2="503" y1="630" x1="449" />
  <line class="link" y2="794" x2="677" y1="834" x1="685" />
  <line class="link" y2="866" x2="687" y1="834" x1="685" />
  <line class="link" y2="578" x2="503" y1="628" x1="564" />
  <line class="link" y2="573" x2="569" y1="628" x1="564" />
  <line class="link" y2="672" x2="571" y1="628" x1="564" />
  <line class="link" y2="628" x2="564" y1="632" x1="583" />
  <line class="link" y2="646" x2="675" y1="632" x1="583" />
  <line class="link" y2="578" x2="503" y1="632" x1="583" />
  <line class="link" y2="672" x2="571" y1="632" x1="583" />
  <line class="link" y2="573" x2="569" y1="632" x1="583" />
  <line class="link" y2="578" x2="503" y1="638" x1="547" />
  <line class="link" y2="666" x2="499" y1="638" x1="547" />
  <line class="link" y2="672" x2="571" y1="638" x1="547" />
  <line class="link" y2="645" x2="637" y1="638" x1="547" />
  <line class="link" y2="246" x2="392" y1="266" x1="419" />
  <line class="link" y2="356" x2="418" y1="266" x1="419" />
  <line class="link" y2="266" x2="419" y1="246" x1="392" />
  <line class="link" y2="524" x2="1045" y1="527" x1="1008" />
  <line class="link" y2="569" x2="1061" y1="527" x1="1008" />
  <line class="link" y2="451" x2="916" y1="527" x1="1008" />
  <line class="link" y2="524" x2="1045" y1="495" x1="1017" />
  <line class="link" y2="451" x2="916" y1="495" x1="1017" />
  <line class="link" y2="771" x2="881" y1="826" x1="866" />
  <line class="link" y2="833" x2="757" y1="799" x1="774" />
  <line class="link" y2="765" x2="814" y1="799" x1="774" />
  <line class="link" y2="794" x2="801" y1="799" x1="774" />
  <line class="link" y2="663" x2="811" y1="724" x1="831" />
  <line class="link" y2="765" x2="814" y1="724" x1="831" />
  <line class="link" y2="771" x2="881" y1="724" x1="831" />
  <line class="link" y2="771" x2="881" y1="813" x1="903" />
  <line class="link" y2="742" x2="946" y1="766" x1="980" />
  <line class="link" y2="597" x2="361" y1="634" x1="346" />
  <line class="link" y2="297" x2="1014" y1="398" x1="1029" />
  <line class="link" y2="590" x2="956" y1="625" x1="966" />
  <line class="link" y2="451" x2="916" y1="398" x1="1029" />
  <line class="link" y2="601" x2="977" y1="625" x1="966" />
  <line class="link" y2="400" x2="1081" y1="398" x1="1029" />
  <line class="link" y2="725" x2="565" y1="770" x1="526" />
  <line class="link" y2="436" x2="1090" y1="398" x1="1029" />
  <line class="link" y2="750" x2="479" y1="774" x1="481" />
  <line class="link" y2="428" x2="1011" y1="398" x1="1029" />
  <line class="link" y2="796" x2="492" y1="774" x1="481" />
  <line class="link" y2="416" x2="1052" y1="398" x1="1029" />
  <line class="link" y2="770" x2="526" y1="774" x1="481" />
  <line class="link" y2="366" x2="1046" y1="398" x1="1029" />
  <line class="link" y2="357" x2="704" y1="339" x1="731" />
  <line class="link" y2="294" x2="1061" y1="297" x1="1014" />
  <line class="link" y2="461" x2="799" y1="405" x1="735" />
  <line class="link" y2="334" x2="982" y1="297" x1="1014" />
  <line class="link" y2="404" x2="762" y1="405" x1="735" />
  <line class="link" y2="416" x2="1052" y1="428" x1="1011" />
  <line class="link" y2="416" x2="634" y1="357" x1="704" />
  <line class="link" y2="451" x2="916" y1="428" x1="1011" />
  <line class="link" y2="307" x2="715" y1="357" x1="704" />
  <line class="link" y2="366" x2="1046" y1="416" x1="1052" />
  <line class="link" y2="611" x2="736" y1="645" x1="637" />
  <line class="link" y2="400" x2="1081" y1="416" x1="1052" />
  <line class="link" y2="663" x2="811" y1="611" x1="736" />
  <line class="link" y2="436" x2="1090" y1="416" x1="1052" />
  <line class="link" y2="405" x2="735" y1="404" x1="762" />
  <line class="link" y2="428" x2="1011" y1="416" x1="1052" />
  <line class="link" y2="334" x2="982" y1="438" x1="964" />
  <line class="link" y2="436" x2="1090" y1="461" x1="1130" />
  <line class="link" y2="514" x2="601" y1="569" x1="656" />
  <line class="link" y2="297" x2="1014" y1="366" x1="1046" />
  <line class="link" y2="576" x2="635" y1="569" x1="656" />
  <line class="link" y2="348" x2="865" y1="246" x1="875" />
  <line class="link" y2="514" x2="601" y1="576" x1="635" />
  <line class="link" y2="239" x2="852" y1="246" x1="875" />
  <line class="link" y2="725" x2="565" y1="732" x1="590" />
  <line class="link" y2="257" x2="824" y1="246" x1="875" />
  <line class="link" y2="514" x2="601" y1="511" x1="567" />
  <line class="link" y2="278" x2="838" y1="246" x1="875" />
  <line class="link" y2="401" x2="601" y1="441" x1="619" />
  <line class="link" y2="211" x2="815" y1="246" x1="875" />
  <line class="link" y2="514" x2="601" y1="484" x1="550" />
  <line class="link" y2="348" x2="865" y1="243" x1="807" />
  <line class="link" y2="416" x2="634" y1="401" x1="601" />
  <line class="link" y2="211" x2="815" y1="184" x1="768" />
  <line class="link" y2="224" x2="625" y1="196" x1="659" />
  <line class="link" y2="195" x2="789" y1="184" x1="768" />
  <line class="link" y2="224" x2="625" y1="187" x1="624" />
  <line class="link" y2="195" x2="789" y1="159" x1="794" />
  <line class="link" y2="514" x2="601" y1="542" x1="628" />
  <line class="link" y2="211" x2="815" y1="159" x1="794" />
  <line class="link" y2="576" x2="635" y1="542" x1="628" />
  <line class="link" y2="239" x2="852" y1="211" x1="815" />
  <line class="link" y2="663" x2="811" y1="680" x1="782" />
  <line class="link" y2="278" x2="838" y1="257" x1="824" />
  <line class="link" y2="405" x2="735" y1="461" x1="799" />
  <line class="link" y2="211" x2="815" y1="257" x1="824" />
  <line class="link" y2="451" x2="916" y1="461" x1="799" />
  <line class="link" y2="239" x2="852" y1="278" x1="838" />
  <line class="link" y2="611" x2="736" y1="461" x1="799" />
  <line class="link" y2="223" x2="435" y1="185" x1="468" />
  <line class="link" y2="418" x2="538" y1="390" x1="515" />
  <line class="link" y2="193" x2="436" y1="185" x1="468" />
  <line class="link" y2="448" x2="406" y1="418" x1="538" />
  <line class="link" y2="185" x2="468" y1="151" x1="508" />
  <line class="link" y2="645" x2="637" y1="628" x1="564" />
  <line class="link" y2="128" x2="562" y1="151" x1="508" />
  <line class="link" y2="672" x2="571" y1="628" x1="564" />
  <line class="link" y2="95" x2="550" y1="151" x1="508" />
  <line class="link" y2="672" x2="571" y1="632" x1="583" />
  <line class="link" y2="193" x2="436" y1="168" x1="436" />
  <line class="link" y2="628" x2="564" y1="638" x1="547" />
  <line class="link" y2="168" x2="436" y1="193" x1="436" />
  <line class="link" y2="672" x2="571" y1="638" x1="547" />
  <line class="link" y2="223" x2="435" y1="193" x1="436" />
  <line class="link" y2="573" x2="569" y1="638" x1="547" />
  <line class="link" y2="101" x2="583" y1="128" x1="562" />
  <line class="link" y2="333" x2="359" y1="344" x1="388" />
  <line class="link" y2="101" x2="583" y1="95" x1="550" />
  <line class="link" y2="356" x2="418" y1="344" x1="388" />
  <line class="link" y2="151" x2="508" y1="179" x1="524" />
  <line class="link" y2="356" x2="418" y1="344" x1="388" />
  <line class="link" y2="95" x2="550" y1="101" x1="583" />
  <line class="link" y2="344" x2="388" y1="333" x1="359" />
  <line class="link" y2="128" x2="562" y1="101" x1="583" />
  <line class="link" y2="266" x2="419" y1="356" x1="418" />
  <line class="link" y2="99" x2="614" y1="101" x1="583" />
  <line class="link" y2="344" x2="388" y1="356" x1="418" />
  <line class="link" y2="101" x2="583" y1="99" x1="614" />
  <line class="link" y2="578" x2="503" y1="356" x1="418" />
  <line class="link" y2="101" x2="583" y1="66" x1="631" />
  <line class="link" y2="223" x2="435" y1="266" x1="419" />
  <line class="link" y2="95" x2="550" y1="54" x1="557" />
  <line class="link" y2="518" x2="1072" y1="495" x1="1017" />
  <line class="link" y2="240" x2="949" y1="198" x1="907" />
  <line class="link" y2="771" x2="881" y1="796" x1="837" />
  <line class="link" y2="214" x2="893" y1="198" x1="907" />
  <line class="link" y2="794" x2="801" y1="796" x1="837" />
  <line class="link" y2="246" x2="875" y1="198" x1="907" />
  <line class="link" y2="771" x2="881" y1="730" x1="884" />
  <line class="link" y2="227" x2="902" y1="198" x1="907" />
  <line class="link" y2="813" x2="903" y1="790" x1="907" />
  <line class="link" y2="213" x2="925" y1="198" x1="907" />
  <line class="link" y2="771" x2="881" y1="790" x1="907" />
  <line class="link" y2="213" x2="925" y1="240" x1="949" />
  <line class="link" y2="771" x2="881" y1="765" x1="814" />
  <line class="link" y2="246" x2="875" y1="240" x1="949" />
  <line class="link" y2="794" x2="801" y1="765" x1="814" />
  <line class="link" y2="246" x2="875" y1="227" x1="902" />
  <line class="link" y2="524" x2="1045" y1="518" x1="1072" />
  <line class="link" y2="240" x2="949" y1="213" x1="925" />
  <line class="link" y2="769" x2="955" y1="734" x1="969" />
  <line class="link" y2="214" x2="893" y1="213" x1="925" />
  <line class="link" y2="742" x2="946" y1="734" x1="969" />
  <line class="link" y2="246" x2="875" y1="213" x1="925" />
  <line class="link" y2="766" x2="980" y1="769" x1="955" />
  <line class="link" y2="334" x2="982" y1="227" x1="978" />
  <line class="link" y2="771" x2="881" y1="769" x1="955" />
  <line class="link" y2="297" x2="1014" y1="294" x1="1061" />
  <line class="link" y2="734" x2="969" y1="742" x1="946" />
  <line class="link" y2="297" x2="1014" y1="259" x1="927" />
  <line class="link" y2="771" x2="881" y1="742" x1="946" />
  <line class="link" y2="227" x2="978" y1="259" x1="927" />
  <line class="link" y2="769" x2="955" y1="766" x1="980" />
  <line class="link" y2="239" x2="852" y1="259" x1="927" />
  <line class="link" y2="239" x2="852" y1="243" x1="807" />
  <line class="link" y2="297" x2="1014" y1="269" x1="952" />
  <line class="link" y2="195" x2="789" y1="243" x1="807" />
  <line class="link" y2="227" x2="978" y1="269" x1="952" />
  <line class="link" y2="184" x2="768" y1="243" x1="807" />
  <line class="link" y2="239" x2="852" y1="269" x1="952" />
  <line class="link" y2="257" x2="824" y1="243" x1="807" />
  <line class="link" y2="155" x2="992" y1="178" x1="1042" />
  <line class="link" y2="278" x2="838" y1="243" x1="807" />
  <line class="link" y2="229" x2="1060" y1="178" x1="1042" />
  <line class="link" y2="211" x2="815" y1="243" x1="807" />
  <line class="link" y2="240" x2="949" y1="265" x1="986" />
  <line class="link" y2="239" x2="852" y1="195" x1="789" />
  <line class="link" y2="240" x2="949" y1="265" x1="986" />
  <line class="link" y2="184" x2="768" y1="195" x1="789" />
  <line class="link" y2="418" x2="538" y1="342" x1="525" />
  <line class="link" y2="257" x2="824" y1="278" x1="838" />
  <line class="link" y2="448" x2="406" y1="454" x1="367" />
  <line class="link" y2="348" x2="865" y1="278" x1="838" />
  <line class="link" y2="448" x2="406" y1="417" x1="386" />
  <line class="link" y2="184" x2="768" y1="122" x1="735" />
  <line class="link" y2="770" x2="526" y1="804" x1="562" />
  <line class="link" y2="122" x2="735" y1="84" x1="722" />
  <line class="link" y2="421" x2="333" y1="411" x1="307" />
  <line class="link" y2="151" x2="508" y1="185" x1="468" />
  <line class="link" y2="421" x2="333" y1="411" x1="307" />
  <line class="link" y2="151" x2="508" y1="185" x1="468" />
  <line class="link" y2="448" x2="406" y1="421" x1="333" />
  <line class="link" y2="266" x2="419" y1="185" x1="468" />
  <line class="link" y2="514" x2="759" y1="481" x1="665" />
  <line class="link" y2="168" x2="436" y1="185" x1="468" />
  <line class="link" y2="418" x2="538" y1="481" x1="665" />
  <line class="link" y2="193" x2="436" y1="223" x1="435" />
  <line class="link" y2="484" x2="746" y1="514" x1="759" />
  <line class="link" y2="266" x2="419" y1="223" x1="435" />
  <line class="link" y2="498" x2="845" y1="514" x1="759" />
  <line class="link" y2="266" x2="419" y1="276" x1="394" />
  <line class="link" y2="418" x2="538" y1="444" x1="492" />
  <line class="link" y2="266" x2="419" y1="276" x1="394" />
  <line class="link" y2="545" x2="814" y1="556" x1="781" />
  <line class="link" y2="151" x2="508" y1="118" x1="539" />
  <line class="link" y2="514" x2="759" y1="556" x1="781" />
  <line class="link" y2="101" x2="583" y1="118" x1="539" />
  <line class="link" y2="498" x2="845" y1="545" x1="814" />
  <line class="link" y2="128" x2="562" y1="118" x1="539" />
  <line class="link" y2="498" x2="845" y1="530" x1="866" />
  <line class="link" y2="95" x2="550" y1="118" x1="539" />
  <line class="link" y2="416" x2="634" y1="390" x1="644" />
  <line class="link" y2="227" x2="978" y1="240" x1="949" />
  <line class="link" y2="413" x2="662" y1="390" x1="644" />
  <line class="link" y2="297" x2="1014" y1="240" x1="949" />
  <line class="link" y2="482" x2="926" y1="483" x1="894" />
  <line class="link" y2="269" x2="952" y1="240" x1="949" />
  <line class="link" y2="498" x2="845" y1="483" x1="894" />
  <line class="link" y2="227" x2="902" y1="214" x1="893" />
  <line class="link" y2="451" x2="916" y1="498" x1="845" />
  <line class="link" y2="246" x2="875" y1="214" x1="893" />
  <line class="link" y2="484" x2="746" y1="498" x1="845" />
  <line class="link" y2="259" x2="927" y1="214" x1="893" />
  <line class="link" y2="543" x2="935" y1="498" x1="845" />
  <line class="link" y2="240" x2="949" y1="227" x1="902" />
  <line class="link" y2="483" x2="894" y1="451" x1="916" />
  <line class="link" y2="214" x2="893" y1="227" x1="902" />
  <line class="link" y2="498" x2="845" y1="451" x1="916" />
  <line class="link" y2="297" x2="1014" y1="265" x1="986" />
  <line class="link" y2="482" x2="926" y1="451" x1="916" />
  <line class="link" y2="227" x2="978" y1="140" x1="953" />
  <line class="link" y2="451" x2="916" y1="429" x1="860" />
  <line class="link" y2="105" x2="930" y1="140" x1="953" />
  <line class="link" y2="498" x2="845" y1="429" x1="860" />
  <line class="link" y2="227" x2="978" y1="155" x1="992" />
  <line class="link" y2="392" x2="880" y1="429" x1="860" />
  <line class="link" y2="105" x2="930" y1="155" x1="992" />
  <line class="link" y2="461" x2="799" y1="429" x1="860" />
  <line class="link" y2="297" x2="1014" y1="252" x1="1026" />
  <line class="link" y2="348" x2="865" y1="429" x1="860" />
  <line class="link" y2="227" x2="978" y1="252" x1="1026" />
  <line class="link" y2="413" x2="662" y1="442" x1="583" />
  <line class="link" y2="297" x2="1014" y1="229" x1="1060" />
  <line class="link" y2="732" x2="590" y1="725" x1="565" />
  <line class="link" y2="625" x2="966" y1="633" x1="1032" />
  <line class="link" y2="650" x2="988" y1="670" x1="1013" />
  <line class="link" y2="650" x2="988" y1="670" x1="1013" />
  <line class="link" y2="625" x2="966" y1="650" x1="988" />
  <line class="link" y2="625" x2="966" y1="650" x1="988" />
  <line class="link" y2="625" x2="966" y1="650" x1="988" />
  <line class="link" y2="601" x2="977" y1="590" x1="956" />
  <line class="link" y2="543" x2="935" y1="590" x1="956" />
  <line class="link" y2="590" x2="956" y1="601" x1="977" />
  <line class="link" y2="65" x2="815" y1="71" x1="863" />
  <line class="link" y2="105" x2="930" y1="71" x1="863" />
  <line class="link" y2="43" x2="843" y1="71" x1="863" />
  <line class="link" y2="418" x2="538" y1="408" x1="479" />
  <line class="link" y2="418" x2="538" y1="351" x1="494" />
  <line class="link" y2="351" x2="494" y1="313" x1="498" />
  <line class="link" y2="342" x2="525" y1="313" x1="498" />
  <line class="link" y2="498" x2="845" y1="563" x1="855" />
  <line class="link" y2="326" x2="632" y1="342" x1="652" />
  <line class="link" y2="413" x2="662" y1="342" x1="652" />
  <line class="link" y2="498" x2="845" y1="484" x1="746" />
  <line class="link" y2="418" x2="538" y1="484" x1="746" />
  <line class="link" y2="538" x2="428" y1="527" x1="400" />
  <line class="link" y2="571" x2="399" y1="527" x1="400" />
  <line class="link" y2="553" x2="357" y1="527" x1="400" />
  <line class="link" y2="524" x2="333" y1="527" x1="400" />
  <line class="link" y2="508" x2="369" y1="527" x1="400" />
  <line class="link" y2="597" x2="361" y1="527" x1="400" />
  <line class="link" y2="448" x2="406" y1="527" x1="400" />
  <line class="link" y2="484" x2="550" y1="527" x1="400" />
  <line class="link" y2="297" x2="1014" y1="316" x1="1041" />
  <line class="link" y2="297" x2="1014" y1="316" x1="1041" />
  <line class="link" y2="326" x2="632" y1="390" x1="644" />
  <line class="link" y2="573" x2="569" y1="442" x1="583" />
  <line class="link" y2="484" x2="550" y1="442" x1="583" />
  <line class="link" y2="405" x2="735" y1="413" x1="662" />
  <line class="link" y2="442" x2="583" y1="295" x1="590" />
  <line class="link" y2="224" x2="625" y1="295" x1="590" />
  <line class="link" y2="256" x2="573" y1="295" x1="590" />
  <line class="link" y2="612" x2="645" y1="699" x1="615" />
  <line class="link" y2="732" x2="590" y1="699" x1="615" />
  <line class="link" y2="725" x2="565" y1="699" x1="615" />
  <line class="link" y2="404" x2="762" y1="383" x1="776" />
  <line class="link" y2="405" x2="735" y1="383" x1="776" />
  <line class="link" y2="794" x2="637" y1="756" x1="639" />
  <line class="link" y2="672" x2="571" y1="756" x1="639" />
  <line class="link" y2="794" x2="677" y1="756" x1="639" />
  <line class="link" y2="725" x2="565" y1="672" x1="571" />
  <line class="link" y2="672" x2="571" y1="725" x1="565" />
  <line class="link" y2="663" x2="811" y1="648" x1="886" />
  <line class="link" y2="625" x2="966" y1="648" x1="886" />
  <circle style="fill: rgb(255, 239, 213);" class="node" cy="272" cx="832" r="12" />
  <circle style="fill: rgb(255, 218, 185);" class="node" cy="118" cx="731" r="8" />
  <circle style="fill: rgb(124, 252, 0);" class="node" cy="178" cx="461" r="14" />
  <circle style="fill: rgb(144, 238, 144);" class="node" cy="80" cx="718" r="8" />
  <circle style="fill: rgb(128, 128, 128);" class="node" cy="164" cx="432" r="8" />
  <circle style="fill: rgb(0, 255, 0);" class="node" cy="144" cx="501" r="14" />
  <circle style="fill: rgb(255, 255, 0);" class="node" cy="218" cx="430" r="10" />
  <circle style="fill: rgb(245, 222, 179);" class="node" cy="188" cx="431" r="10" />
  <circle style="fill: rgb(148, 0, 211);" class="node" cy="114" cx="535" r="8" />
  <circle style="fill: rgb(255, 160, 122);" class="node" cy="272" cx="390" r="8" />
  <circle style="fill: rgb(255, 127, 80);" class="node" cy="90" cx="545" r="10" />
  <circle style="fill: rgb(184, 134, 11);" class="node" cy="124" cx="558" r="8" />
  <circle style="fill: rgb(95, 158, 160);" class="node" cy="93" cx="575" r="16" />
  <circle style="fill: rgb(34, 139, 34);" class="node" cy="175" cx="520" r="8" />
  <circle style="fill: rgb(0, 255, 0);" class="node" cy="62" cx="627" r="8" />
  <circle style="fill: rgb(220, 20, 60);" class="node" cy="95" cx="610" r="8" />
  <circle style="fill: rgb(240, 128, 128);" class="node" cy="230" cx="939" r="20" />
  <circle style="fill: rgb(250, 240, 230);" class="node" cy="50" cx="553" r="8" />
  <circle style="fill: rgb(244, 164, 96);" class="node" cy="208" cx="887" r="12" />
  <circle style="fill: rgb(255, 240, 245);" class="node" cy="193" cx="902" r="10" />
  <circle style="fill: rgb(169, 169, 169);" class="node" cy="220" cx="971" r="14" />
  <circle style="fill: rgb(210, 105, 30);" class="node" cy="222" cx="897" r="10" />
  <circle style="fill: rgb(255, 240, 245);" class="node" cy="290" cx="1057" r="8" />
  <circle style="fill: rgb(255, 250, 240);" class="node" cy="208" cx="920" r="10" />
  <circle style="fill: rgb(0, 255, 0);" class="node" cy="174" cx="1038" r="8" />
  <circle style="fill: rgb(240, 255, 240);" class="node" cy="255" cx="923" r="8" />
  <circle style="fill: rgb(255, 0, 255);" class="node" cy="261" cx="982" r="8" />
  <circle style="fill: rgb(218, 165, 32);" class="node" cy="265" cx="948" r="8" />
  <circle style="fill: rgb(138, 43, 226);" class="node" cy="151" cx="988" r="8" />
  <circle style="fill: rgb(255, 228, 225);" class="node" cy="136" cx="949" r="8" />
  <circle style="fill: rgb(255, 255, 224);" class="node" cy="248" cx="1022" r="8" />
  <circle style="fill: rgb(255, 228, 181);" class="node" cy="101" cx="926" r="8" />
  <circle style="fill: rgb(255, 248, 220);" class="node" cy="666" cx="1009" r="8" />
  <circle style="fill: rgb(0, 0, 139);" class="node" cy="225" cx="1056" r="8" />
  <circle style="fill: rgb(192, 192, 192);" class="node" cy="645" cx="983" r="10" />
  <circle style="fill: rgb(128, 128, 128);" class="node" cy="629" cx="1028" r="8" />
  <circle style="fill: rgb(0, 255, 255);" class="node" cy="404" cx="475" r="8" />
  <circle style="fill: rgb(152, 251, 152);" class="node" cy="586" cx="952" r="8" />
  <circle style="fill: rgb(220, 220, 220);" class="node" cy="347" cx="490" r="8" />
  <circle style="fill: rgb(255, 245, 238);" class="node" cy="597" cx="973" r="8" />
  <circle style="fill: rgb(152, 251, 152);" class="node" cy="322" cx="628" r="8" />
  <circle style="fill: rgb(160, 82, 45);" class="node" cy="61" cx="811" r="8" />
  <circle style="fill: rgb(211, 211, 211);" class="node" cy="384" cx="638" r="12" />
  <circle style="fill: rgb(102, 205, 170);" class="node" cy="67" cx="859" r="8" />
  <circle style="fill: rgb(211, 211, 211);" class="node" cy="424" cx="855" r="10" />
  <circle style="fill: rgb(123, 104, 238);" class="node" cy="309" cx="494" r="8" />
  <circle style="fill: rgb(253, 245, 230);" class="node" cy="438" cx="579" r="8" />
  <circle style="fill: rgb(222, 184, 135);" class="node" cy="338" cx="521" r="8" />
  <circle style="fill: rgb(255, 105, 180);" class="node" cy="406" cx="655" r="14" />
  <circle style="fill: rgb(186, 85, 211);" class="node" cy="479" cx="890" r="8" />
  <circle style="fill: rgb(255, 255, 0);" class="node" cy="291" cx="586" r="8" />
  <circle style="fill: rgb(210, 180, 140);" class="node" cy="478" cx="922" r="8" />
  <circle style="fill: rgb(218, 112, 214);" class="node" cy="695" cx="611" r="8" />
  <circle style="fill: rgb(240, 255, 255);" class="node" cy="487" cx="834" r="22" />
  <circle style="fill: rgb(60, 179, 113);" class="node" cy="379" cx="772" r="8" />
  <circle style="fill: rgb(255, 228, 196);" class="node" cy="439" cx="904" r="24" />
  <circle style="fill: rgb(250, 250, 210);" class="node" cy="790" cx="673" r="8" />
  <circle style="fill: rgb(220, 20, 60);" class="node" cy="752" cx="635" r="8" />
  <circle style="fill: rgb(139, 0, 139);" class="node" cy="450" cx="363" r="8" />
  <circle style="fill: rgb(255, 240, 245);" class="node" cy="790" cx="633" r="8" />
  <circle style="fill: rgb(240, 230, 140);" class="node" cy="630" cx="342" r="8" />
  <circle style="fill: rgb(160, 82, 45);" class="node" cy="663" cx="562" r="18" />
  <circle style="fill: rgb(245, 255, 250);" class="node" cy="443" cx="401" r="10" />
  <circle style="fill: rgb(205, 133, 63);" class="node" cy="718" cx="558" r="14" />
  <circle style="fill: rgb(199, 21, 133);" class="node" cy="659" cx="807" r="8" />
  <circle style="fill: rgb(238, 130, 238);" class="node" cy="593" cx="357" r="8" />
  <circle style="fill: rgb(255, 0, 0);" class="node" cy="746" cx="475" r="8" />
  <circle style="fill: rgb(32, 178, 170);" class="node" cy="413" cx="382" r="8" />
  <circle style="fill: rgb(64, 224, 208);" class="node" cy="763" cx="519" r="14" />
  <circle style="fill: rgb(0, 128, 128);" class="node" cy="644" cx="882" r="8" />
  <circle style="fill: rgb(238, 130, 238);" class="node" cy="770" cx="477" r="8" />
  <circle style="fill: rgb(60, 179, 113);" class="node" cy="617" cx="958" r="16" />
  <circle style="fill: rgb(244, 164, 96);" class="node" cy="410" cx="628" r="12" />
  <circle style="fill: rgb(75, 0, 130);" class="node" cy="335" cx="727" r="8" />
  <circle style="fill: rgb(255, 228, 181);" class="node" cy="303" cx="711" r="8" />
  <circle style="fill: rgb(255, 255, 224);" class="node" cy="395" cx="725" r="20" />
  <circle style="fill: rgb(173, 255, 47);" class="node" cy="641" cx="633" r="8" />
  <circle style="fill: rgb(255, 250, 205);" class="node" cy="398" cx="688" r="8" />
  <circle style="fill: rgb(178, 34, 34);" class="node" cy="607" cx="732" r="8" />
  <circle style="fill: rgb(245, 245, 220);" class="node" cy="353" cx="700" r="8" />
  <circle style="fill: rgb(72, 209, 204);" class="node" cy="571" cx="630" r="10" />
  <circle style="fill: rgb(255, 255, 240);" class="node" cy="642" cx="671" r="8" />
  <circle style="fill: rgb(107, 142, 35);" class="node" cy="728" cx="586" r="8" />
  <circle style="fill: rgb(245, 255, 250);" class="node" cy="400" cx="758" r="8" />
  <circle style="fill: rgb(169, 169, 169);" class="node" cy="568" cx="564" r="10" />
  <circle style="fill: rgb(238, 130, 238);" class="node" cy="434" cx="960" r="8" />
  <circle style="fill: rgb(233, 150, 122);" class="node" cy="505" cx="592" r="18" />
  <circle style="fill: rgb(75, 0, 130);" class="node" cy="330" cx="978" r="8" />
  <circle style="fill: rgb(64, 224, 208);" class="node" cy="417" cx="329" r="8" />
  <circle style="fill: rgb(128, 0, 0);" class="node" cy="800" cx="558" r="8" />
  <circle style="fill: rgb(32, 178, 170);" class="node" cy="437" cx="615" r="8" />
  <circle style="fill: rgb(178, 34, 34);" class="node" cy="539" cx="931" r="8" />
  <circle style="fill: rgb(0, 255, 255);" class="node" cy="478" cx="544" r="12" />
  <circle style="fill: rgb(60, 179, 113);" class="node" cy="565" cx="652" r="8" />
  <circle style="fill: rgb(0, 128, 128);" class="node" cy="397" cx="597" r="8" />
  <circle style="fill: rgb(30, 144, 255);" class="node" cy="608" cx="641" r="8" />
  <circle style="fill: rgb(255, 250, 240);" class="node" cy="220" cx="621" r="8" />
  <circle style="fill: rgb(255, 255, 240);" class="node" cy="862" cx="683" r="8" />
  <circle style="fill: rgb(106, 90, 205);" class="node" cy="440" cx="488" r="8" />
  <circle style="fill: rgb(138, 43, 226);" class="node" cy="511" cx="533" r="8" />
  <circle style="fill: rgb(240, 230, 140);" class="node" cy="538" cx="624" r="8" />
  <circle style="fill: rgb(95, 158, 160);" class="node" cy="407" cx="303" r="8" />
  <circle style="fill: rgb(244, 164, 96);" class="node" cy="388" cx="876" r="8" />
  <circle style="fill: rgb(50, 205, 50);" class="node" cy="507" cx="563" r="8" />
  <circle style="fill: rgb(255, 105, 180);" class="node" cy="526" cx="862" r="8" />
  <circle style="fill: rgb(160, 82, 45);" class="node" cy="192" cx="655" r="8" />
  <circle style="fill: rgb(255, 235, 205);" class="node" cy="559" cx="851" r="8" />
  <circle style="fill: rgb(220, 20, 60);" class="node" cy="477" cx="661" r="8" />
  <circle style="fill: rgb(0, 139, 139);" class="node" cy="39" cx="839" r="8" />
  <circle style="fill: rgb(70, 130, 180);" class="node" cy="510" cx="755" r="8" />
  <circle style="fill: rgb(153, 50, 204);" class="node" cy="338" cx="648" r="8" />
  <circle style="fill: rgb(47, 79, 79);" class="node" cy="183" cx="620" r="8" />
  <circle style="fill: rgb(255, 245, 238);" class="node" cy="386" cx="511" r="8" />
  <circle style="fill: rgb(0, 250, 154);" class="node" cy="341" cx="858" r="14" />
  <circle style="fill: rgb(0, 128, 0);" class="node" cy="410" cx="530" r="16" />
  <circle style="fill: rgb(255, 222, 173);" class="node" cy="676" cx="778" r="8" />
  <circle style="fill: rgb(32, 178, 170);" class="node" cy="621" cx="557" r="14" />
  <circle style="fill: rgb(154, 205, 50);" class="node" cy="456" cx="794" r="10" />
  <circle style="fill: rgb(221, 160, 221);" class="node" cy="573" cx="498" r="10" />
  <circle style="fill: rgb(221, 160, 221);" class="node" cy="552" cx="777" r="8" />
  <circle style="fill: rgb(255, 218, 185);" class="node" cy="626" cx="577" r="12" />
  <circle style="fill: rgb(255, 99, 71);" class="node" cy="661" cx="415" r="8" />
  <circle style="fill: rgb(255, 228, 225);" class="node" cy="631" cx="540" r="14" />
  <circle style="fill: rgb(255, 228, 181);" class="node" cy="541" cx="810" r="8" />
  <circle style="fill: rgb(255, 0, 0);" class="node" cy="662" cx="495" r="8" />
  <circle style="fill: rgb(255, 255, 255);" class="node" cy="626" cx="445" r="8" />
  <circle style="fill: rgb(47, 79, 79);" class="node" cy="339" cx="383" r="10" />
  <circle style="fill: rgb(139, 0, 139);" class="node" cy="830" cx="681" r="8" />
  <circle style="fill: rgb(144, 238, 144);" class="node" cy="523" cx="1004" r="8" />
  <circle style="fill: rgb(165, 42, 42);" class="node" cy="329" cx="355" r="8" />
  <circle style="fill: rgb(218, 165, 32);" class="node" cy="491" cx="1013" r="8" />
  <circle style="fill: rgb(199, 21, 133);" class="node" cy="350" cx="412" r="12" />
  <circle style="fill: rgb(0, 255, 127);" class="node" cy="792" cx="833" r="8" />
  <circle style="fill: rgb(255, 0, 255);" class="node" cy="257" cx="410" r="18" />
  <circle style="fill: rgb(255, 215, 0);" class="node" cy="519" cx="392" r="16" />
  <circle style="fill: rgb(255, 0, 0);" class="node" cy="792" cx="488" r="8" />
  <circle style="fill: rgb(192, 192, 192);" class="node" cy="762" cx="872" r="18" />
  <circle style="fill: rgb(127, 255, 212);" class="node" cy="242" cx="388" r="8" />
  <circle style="fill: rgb(64, 224, 208);" class="node" cy="534" cx="424" r="8" />
  <circle style="fill: rgb(135, 206, 235);" class="node" cy="252" cx="569" r="8" />
  <circle style="fill: rgb(222, 184, 135);" class="node" cy="790" cx="797" r="8" />
  <circle style="fill: rgb(0, 255, 0);" class="node" cy="480" cx="742" r="8" />
  <circle style="fill: rgb(0, 0, 139);" class="node" cy="567" cx="395" r="8" />
  <circle style="fill: rgb(220, 20, 60);" class="node" cy="520" cx="1041" r="8" />
  <circle style="fill: rgb(211, 211, 211);" class="node" cy="809" cx="899" r="8" />
  <circle style="fill: rgb(192, 192, 192);" class="node" cy="726" cx="880" r="8" />
  <circle style="fill: rgb(153, 50, 204);" class="node" cy="312" cx="1037" r="8" />
  <circle style="fill: rgb(60, 179, 113);" class="node" cy="549" cx="353" r="8" />
  <circle style="fill: rgb(240, 255, 255);" class="node" cy="786" cx="903" r="8" />
  <circle style="fill: rgb(0, 255, 0);" class="node" cy="822" cx="862" r="8" />
  <circle style="fill: rgb(147, 112, 219);" class="node" cy="761" cx="810" r="8" />
  <circle style="fill: rgb(50, 205, 50);" class="node" cy="520" cx="329" r="8" />
  <circle style="fill: rgb(199, 21, 133);" class="node" cy="565" cx="1057" r="8" />
  <circle style="fill: rgb(255, 250, 250);" class="node" cy="795" cx="770" r="8" />
  <circle style="fill: rgb(240, 255, 255);" class="node" cy="514" cx="1068" r="8" />
  <circle style="fill: rgb(240, 128, 128);" class="node" cy="504" cx="365" r="8" />
  <circle style="fill: rgb(100, 149, 237);" class="node" cy="730" cx="965" r="8" />
  <circle style="fill: rgb(224, 255, 255);" class="node" cy="829" cx="753" r="8" />
  <circle style="fill: rgb(255, 245, 238);" class="node" cy="765" cx="951" r="8" />
  <circle style="fill: rgb(154, 205, 50);" class="node" cy="720" cx="827" r="8" />
  <circle style="fill: rgb(144, 238, 144);" class="node" cy="457" cx="1126" r="8" />
  <circle style="fill: rgb(238, 232, 170);" class="node" cy="738" cx="942" r="8" />
  <circle style="fill: rgb(222, 184, 135);" class="node" cy="362" cx="1042" r="8" />
  <circle style="fill: rgb(219, 112, 147);" class="node" cy="762" cx="976" r="8" />
  <circle style="fill: rgb(255, 0, 0);" class="node" cy="815" cx="526" r="8" />
  <circle style="fill: rgb(240, 255, 255);" class="node" cy="391" cx="1022" r="14" />
  <circle style="fill: rgb(218, 165, 32);" class="node" cy="236" cx="865" r="20" />
  <circle style="fill: rgb(65, 105, 225);" class="node" cy="284" cx="1001" r="26" />
  <circle style="fill: rgb(0, 206, 209);" class="node" cy="232" cx="845" r="14" />
  <circle style="fill: rgb(0, 100, 0);" class="node" cy="396" cx="1077" r="8" />
  <circle style="fill: rgb(255, 250, 250);" class="node" cy="236" cx="800" r="14" />
  <circle style="fill: rgb(105, 105, 105);" class="node" cy="432" cx="1086" r="8" />
  <circle style="fill: rgb(245, 245, 220);" class="node" cy="190" cx="784" r="10" />
  <circle style="fill: rgb(255, 215, 0);" class="node" cy="424" cx="1007" r="8" />
  <circle style="fill: rgb(176, 224, 230);" class="node" cy="179" cx="763" r="10" />
  <circle style="fill: rgb(25, 25, 112);" class="node" cy="410" cx="1046" r="12" />
  <circle style="fill: rgb(127, 255, 212);" class="node" cy="155" cx="790" r="8" />
  <circle style="fill: rgb(199, 21, 133);" class="node" cy="205" cx="809" r="12" />
  <circle style="fill: rgb(32, 178, 170);" class="node" cy="252" cx="819" r="10" />
  <defs>
    <style type="text/css">.node {
    opacity: 0.85;
    stroke: #FFF;
    strokeOpacity: 0.8;
    strokeWidth: 0.5px;

}
.link {
    stroke: #CCC;
    strokeOpacity: 0.85;
    strokeWidth: 3;

}
</style>
  </defs>
</svg>