<?xml version="1.0" encoding="utf-8" standalone="no"?>
<svg xmlns:xsd="http://www.w3.org/2001/XMLSchema" xmlns:xsi="http://www.w3.org/2001/XMLSchema-instance" fill="#dbf3ff" width="1440px" height="900px" xmlns:xlink="http://www.w3.org/1999/xlink" xmlns="http://www.w3.org/2000/svg">
  <line class="link" y2="107" x2="834" y1="57" x1="820" />
  <line class="link" y2="191" x2="687" y1="385" x1="711" />
  <line class="link" y2="598" x2="702" y1="385" x1="711" />
  <line class="link" y2="243" x2="635" y1="191" x1="687" />
  <line class="link" y2="190" x2="657" y1="191" x1="687" />
  <line class="link" y2="164" x2="664" y1="191" x1="687" />
  <line class="link" y2="792" x2="887" y1="841" x1="895" />
  <line class="link" y2="728" x2="909" y1="792" x1="887" />
  <line class="link" y2="844" x2="837" y1="792" x1="887" />
  <line class="link" y2="803" x2="852" y1="792" x1="887" />
  <line class="link" y2="728" x2="909" y1="792" x1="887" />
  <line class="link" y2="841" x2="895" y1="825" x1="872" />
  <line class="link" y2="803" x2="852" y1="825" x1="872" />
  <line class="link" y2="792" x2="887" y1="825" x1="872" />
  <line class="link" y2="440" x2="786" y1="493" x1="801" />
  <line class="link" y2="481" x2="834" y1="493" x1="801" />
  <line class="link" y2="521" x2="816" y1="493" x1="801" />
  <line class="link" y2="478" x2="694" y1="440" x1="786" />
  <line class="link" y2="429" x2="772" y1="440" x1="786" />
  <line class="link" y2="419" x2="862" y1="440" x1="786" />
  <line class="link" y2="419" x2="862" y1="407" x1="839" />
  <line class="link" y2="440" x2="786" y1="407" x1="839" />
  <line class="link" y2="404" x2="892" y1="407" x1="839" />
  <line class="link" y2="440" x2="786" y1="481" x1="834" />
  <line class="link" y2="443" x2="903" y1="481" x1="834" />
  <line class="link" y2="521" x2="816" y1="481" x1="834" />
  <line class="link" y2="404" x2="892" y1="443" x1="903" />
  <line class="link" y2="462" x2="969" y1="443" x1="903" />
  <line class="link" y2="588" x2="758" y1="627" x1="833" />
  <line class="link" y2="598" x2="702" y1="588" x1="758" />
  <line class="link" y2="627" x2="833" y1="616" x1="808" />
  <line class="link" y2="588" x2="758" y1="616" x1="808" />
  <line class="link" y2="440" x2="786" y1="429" x1="772" />
  <line class="link" y2="205" x2="487" y1="206" x1="580" />
  <line class="link" y2="243" x2="635" y1="206" x1="580" />
  <line class="link" y2="572" x2="1010" y1="524" x1="1000" />
  <line class="link" y2="462" x2="969" y1="524" x1="1000" />
  <line class="link" y2="526" x2="1021" y1="524" x1="1000" />
  <line class="link" y2="526" x2="1021" y1="572" x1="1010" />
  <line class="link" y2="572" x2="1010" y1="526" x1="1021" />
  <line class="link" y2="462" x2="969" y1="526" x1="1021" />
  <line class="link" y2="728" x2="909" y1="728" x1="943" />
  <line class="link" y2="462" x2="969" y1="574" x1="916" />
  <line class="link" y2="391" x2="937" y1="419" x1="991" />
  <line class="link" y2="462" x2="969" y1="419" x1="991" />
  <line class="link" y2="391" x2="937" y1="390" x1="982" />
  <line class="link" y2="462" x2="969" y1="390" x1="982" />
  <line class="link" y2="468" x2="924" y1="439" x1="936" />
  <line class="link" y2="462" x2="969" y1="439" x1="936" />
  <line class="link" y2="443" x2="903" y1="439" x1="936" />
  <line class="link" y2="404" x2="892" y1="439" x1="936" />
  <line class="link" y2="419" x2="862" y1="391" x1="937" />
  <line class="link" y2="462" x2="969" y1="391" x1="937" />
  <line class="link" y2="443" x2="903" y1="468" x1="924" />
  <line class="link" y2="694" x2="1047" y1="737" x1="1039" />
  <line class="link" y2="694" x2="1047" y1="707" x1="1082" />
  <line class="link" y2="462" x2="969" y1="486" x1="1029" />
  <line class="link" y2="526" x2="1021" y1="486" x1="1029" />
  <line class="link" y2="454" x2="451" y1="464" x1="491" />
  <line class="link" y2="438" x2="525" y1="464" x1="491" />
  <line class="link" y2="464" x2="491" y1="454" x1="451" />
  <line class="link" y2="438" x2="525" y1="454" x1="451" />
  <line class="link" y2="598" x2="702" y1="655" x1="701" />
  <line class="link" y2="440" x2="786" y1="478" x1="694" />
  <line class="link" y2="438" x2="525" y1="478" x1="694" />
  <line class="link" y2="588" x2="758" y1="478" x1="694" />
  <line class="link" y2="587" x2="1114" y1="590" x1="1065" />
  <line class="link" y2="592" x2="967" y1="590" x1="1065" />
  <line class="link" y2="795" x2="759" y1="837" x1="740" />
  <line class="link" y2="870" x2="730" y1="837" x1="740" />
  <line class="link" y2="501" x2="653" y1="554" x1="657" />
  <line class="link" y2="304" x2="766" y1="501" x1="653" />
  <line class="link" y2="627" x2="833" y1="630" x1="902" />
  <line class="link" y2="670" x2="880" y1="630" x1="902" />
  <line class="link" y2="592" x2="967" y1="630" x1="902" />
  <line class="link" y2="574" x2="916" y1="630" x1="902" />
  <line class="link" y2="670" x2="880" y1="630" x1="902" />
  <line class="link" y2="630" x2="902" y1="618" x1="888" />
  <line class="link" y2="616" x2="808" y1="618" x1="888" />
  <line class="link" y2="592" x2="967" y1="618" x1="888" />
  <line class="link" y2="670" x2="880" y1="618" x1="888" />
  <line class="link" y2="574" x2="916" y1="618" x1="888" />
  <line class="link" y2="670" x2="880" y1="618" x1="888" />
  <line class="link" y2="630" x2="902" y1="642" x1="882" />
  <line class="link" y2="670" x2="880" y1="642" x1="882" />
  <line class="link" y2="574" x2="916" y1="642" x1="882" />
  <line class="link" y2="592" x2="967" y1="642" x1="882" />
  <line class="link" y2="690" x2="839" y1="642" x1="882" />
  <line class="link" y2="670" x2="880" y1="642" x1="882" />
  <line class="link" y2="627" x2="833" y1="642" x1="882" />
  <line class="link" y2="475" x2="1143" y1="462" x1="1114" />
  <line class="link" y2="449" x2="1083" y1="462" x1="1114" />
  <line class="link" y2="449" x2="1083" y1="462" x1="1114" />
  <line class="link" y2="462" x2="1114" y1="475" x1="1143" />
  <line class="link" y2="362" x2="1089" y1="449" x1="1083" />
  <line class="link" y2="462" x2="1114" y1="449" x1="1083" />
  <line class="link" y2="592" x2="967" y1="449" x1="1083" />
  <line class="link" y2="322" x2="1081" y1="362" x1="1089" />
  <line class="link" y2="387" x2="1115" y1="362" x1="1089" />
  <line class="link" y2="449" x2="1083" y1="362" x1="1089" />
  <line class="link" y2="362" x2="1089" y1="387" x1="1115" />
  <line class="link" y2="590" x2="466" y1="565" x1="506" />
  <line class="link" y2="622" x2="505" y1="565" x1="506" />
  <line class="link" y2="438" x2="525" y1="565" x1="506" />
  <line class="link" y2="590" x2="466" y1="551" x1="469" />
  <line class="link" y2="438" x2="525" y1="551" x1="469" />
  <line class="link" y2="602" x2="438" y1="551" x1="469" />
  <line class="link" y2="760" x2="540" y1="804" x1="580" />
  <line class="link" y2="807" x2="618" y1="804" x1="580" />
  <line class="link" y2="760" x2="540" y1="734" x1="566" />
  <line class="link" y2="760" x2="540" y1="726" x1="525" />
  <line class="link" y2="859" x2="654" y1="819" x1="644" />
  <line class="link" y2="770" x2="617" y1="819" x1="644" />
  <line class="link" y2="807" x2="618" y1="819" x1="644" />
  <line class="link" y2="598" x2="702" y1="711" x1="627" />
  <line class="link" y2="770" x2="617" y1="711" x1="627" />
  <line class="link" y2="760" x2="540" y1="711" x1="627" />
  <line class="link" y2="760" x2="540" y1="820" x1="534" />
  <line class="link" y2="820" x2="534" y1="801" x1="519" />
  <line class="link" y2="760" x2="540" y1="801" x1="519" />
  <line class="link" y2="760" x2="540" y1="770" x1="617" />
  <line class="link" y2="807" x2="618" y1="770" x1="617" />
  <line class="link" y2="590" x2="466" y1="602" x1="438" />
  <line class="link" y2="740" x2="470" y1="770" x1="443" />
  <line class="link" y2="769" x2="469" y1="770" x1="443" />
  <line class="link" y2="733" x2="444" y1="740" x1="470" />
  <line class="link" y2="760" x2="540" y1="740" x1="470" />
  <line class="link" y2="770" x2="443" y1="769" x1="469" />
  <line class="link" y2="270" x2="1093" y1="292" x1="1083" />
  <line class="link" y2="760" x2="540" y1="769" x1="469" />
  <line class="link" y2="322" x2="1081" y1="292" x1="1083" />
  <line class="link" y2="740" x2="470" y1="733" x1="444" />
  <line class="link" y2="292" x2="1083" y1="322" x1="1081" />
  <line class="link" y2="769" x2="469" y1="733" x1="444" />
  <line class="link" y2="362" x2="1089" y1="322" x1="1081" />
  <line class="link" y2="236" x2="403" y1="307" x1="496" />
  <line class="link" y2="362" x2="1089" y1="356" x1="1125" />
  <line class="link" y2="438" x2="525" y1="307" x1="496" />
  <line class="link" y2="362" x2="1089" y1="356" x1="1125" />
  <line class="link" y2="287" x2="543" y1="307" x1="496" />
  <line class="link" y2="365" x2="324" y1="366" x1="349" />
  <line class="link" y2="244" x2="535" y1="307" x1="496" />
  <line class="link" y2="352" x2="369" y1="366" x1="349" />
  <line class="link" y2="347" x2="515" y1="307" x1="496" />
  <line class="link" y2="352" x2="369" y1="315" x1="379" />
  <line class="link" y2="296" x2="517" y1="307" x1="496" />
  <line class="link" y2="396" x2="362" y1="315" x1="379" />
  <line class="link" y2="276" x2="475" y1="307" x1="496" />
  <line class="link" y2="213" x2="435" y1="315" x1="379" />
  <line class="link" y2="231" x2="369" y1="236" x1="403" />
  <line class="link" y2="236" x2="403" y1="315" x1="379" />
  <line class="link" y2="205" x2="487" y1="236" x1="403" />
  <line class="link" y2="289" x2="390" y1="315" x1="379" />
  <line class="link" y2="296" x2="517" y1="347" x1="515" />
  <line class="link" y2="365" x2="324" y1="345" x1="331" />
  <line class="link" y2="438" x2="525" y1="347" x1="515" />
  <line class="link" y2="396" x2="362" y1="345" x1="331" />
  <line class="link" y2="276" x2="475" y1="296" x1="517" />
  <line class="link" y2="297" x2="360" y1="345" x1="331" />
  <line class="link" y2="287" x2="543" y1="296" x1="517" />
  <line class="link" y2="315" x2="379" y1="365" x1="324" />
  <line class="link" y2="244" x2="535" y1="296" x1="517" />
  <line class="link" y2="345" x2="331" y1="365" x1="324" />
  <line class="link" y2="347" x2="515" y1="296" x1="517" />
  <line class="link" y2="396" x2="362" y1="365" x1="324" />
  <line class="link" y2="244" x2="535" y1="178" x1="557" />
  <line class="link" y2="315" x2="379" y1="352" x1="369" />
  <line class="link" y2="236" x2="403" y1="276" x1="475" />
  <line class="link" y2="345" x2="331" y1="352" x1="369" />
  <line class="link" y2="454" x2="451" y1="396" x1="362" />
  <line class="link" y2="396" x2="362" y1="352" x1="369" />
  <line class="link" y2="418" x2="352" y1="396" x1="362" />
  <line class="link" y2="82" x2="546" y1="115" x1="485" />
  <line class="link" y2="458" x2="363" y1="396" x1="362" />
  <line class="link" y2="236" x2="403" y1="190" x1="420" />
  <line class="link" y2="449" x2="387" y1="396" x1="362" />
  <line class="link" y2="213" x2="435" y1="190" x1="420" />
  <line class="link" y2="473" x2="334" y1="396" x1="362" />
  <line class="link" y2="236" x2="403" y1="144" x1="425" />
  <line class="link" y2="454" x2="451" y1="484" x1="368" />
  <line class="link" y2="191" x2="687" y1="117" x1="685" />
  <line class="link" y2="418" x2="352" y1="484" x1="368" />
  <line class="link" y2="153" x2="712" y1="115" x1="730" />
  <line class="link" y2="511" x2="334" y1="484" x1="368" />
  <line class="link" y2="153" x2="712" y1="115" x1="730" />
  <line class="link" y2="538" x2="341" y1="484" x1="368" />
  <line class="link" y2="191" x2="687" y1="153" x1="712" />
  <line class="link" y2="458" x2="363" y1="484" x1="368" />
  <line class="link" y2="191" x2="687" y1="153" x1="712" />
  <line class="link" y2="449" x2="387" y1="484" x1="368" />
  <line class="link" y2="191" x2="687" y1="153" x1="712" />
  <line class="link" y2="473" x2="334" y1="484" x1="368" />
  <line class="link" y2="164" x2="664" y1="190" x1="657" />
  <line class="link" y2="418" x2="352" y1="511" x1="334" />
  <line class="link" y2="243" x2="635" y1="190" x1="657" />
  <line class="link" y2="538" x2="341" y1="511" x1="334" />
  <line class="link" y2="190" x2="657" y1="164" x1="664" />
  <line class="link" y2="473" x2="334" y1="538" x1="341" />
  <line class="link" y2="33" x2="661" y1="44" x1="610" />
  <line class="link" y2="511" x2="334" y1="538" x1="341" />
  <line class="link" y2="82" x2="546" y1="44" x1="610" />
  <line class="link" y2="511" x2="334" y1="515" x1="298" />
  <line class="link" y2="13" x2="626" y1="44" x1="610" />
  <line class="link" y2="473" x2="334" y1="515" x1="298" />
  <line class="link" y2="501" x2="653" y1="539" x1="695" />
  <line class="link" y2="418" x2="352" y1="473" x1="334" />
  <line class="link" y2="501" x2="653" y1="587" x1="607" />
  <line class="link" y2="449" x2="387" y1="458" x1="363" />
  <line class="link" y2="389" x2="587" y1="354" x1="642" />
  <line class="link" y2="473" x2="334" y1="458" x1="363" />
  <line class="link" y2="389" x2="587" y1="365" x1="578" />
  <line class="link" y2="418" x2="352" y1="449" x1="387" />
  <line class="link" y2="389" x2="587" y1="332" x1="610" />
  <line class="link" y2="458" x2="363" y1="449" x1="387" />
  <line class="link" y2="339" x2="905" y1="350" x1="876" />
  <line class="link" y2="454" x2="451" y1="449" x1="387" />
  <line class="link" y2="419" x2="862" y1="350" x1="876" />
  <line class="link" y2="538" x2="341" y1="609" x1="339" />
  <line class="link" y2="389" x2="587" y1="434" x1="621" />
  <line class="link" y2="609" x2="339" y1="650" x1="343" />
  <line class="link" y2="501" x2="653" y1="434" x1="621" />
  <line class="link" y2="219" x2="1031" y1="269" x1="1056" />
  <line class="link" y2="157" x2="874" y1="216" x1="855" />
  <line class="link" y2="219" x2="1031" y1="269" x1="1056" />
  <line class="link" y2="240" x2="893" y1="216" x1="855" />
  <line class="link" y2="362" x2="1089" y1="269" x1="1056" />
  <line class="link" y2="197" x2="894" y1="216" x1="855" />
  <line class="link" y2="270" x2="1093" y1="269" x1="1056" />
  <line class="link" y2="193" x2="837" y1="216" x1="855" />
  <line class="link" y2="322" x2="1081" y1="269" x1="1056" />
  <line class="link" y2="155" x2="832" y1="216" x1="855" />
  <line class="link" y2="292" x2="1083" y1="269" x1="1056" />
  <line class="link" y2="107" x2="834" y1="216" x1="855" />
  <line class="link" y2="269" x2="1056" y1="219" x1="1031" />
  <line class="link" y2="304" x2="766" y1="216" x1="855" />
  <line class="link" y2="182" x2="985" y1="219" x1="1031" />
  <line class="link" y2="391" x2="937" y1="216" x1="855" />
  <line class="link" y2="152" x2="1010" y1="219" x1="1031" />
  <line class="link" y2="236" x2="403" y1="209" x1="387" />
  <line class="link" y2="292" x2="1083" y1="270" x1="1093" />
  <line class="link" y2="454" x2="451" y1="460" x1="558" />
  <line class="link" y2="219" x2="1031" y1="182" x1="1009" />
  <line class="link" y2="419" x2="862" y1="513" x1="935" />
  <line class="link" y2="140" x2="973" y1="182" x1="1009" />
  <line class="link" y2="574" x2="916" y1="513" x1="935" />
  <line class="link" y2="182" x2="985" y1="182" x1="1009" />
  <line class="link" y2="391" x2="937" y1="513" x1="935" />
  <line class="link" y2="152" x2="1010" y1="182" x1="1009" />
  <line class="link" y2="440" x2="786" y1="419" x1="862" />
  <line class="link" y2="140" x2="973" y1="182" x1="985" />
  <line class="link" y2="513" x2="935" y1="626" x1="1020" />
  <line class="link" y2="140" x2="973" y1="152" x1="1010" />
  <line class="link" y2="694" x2="1047" y1="626" x1="1020" />
  <line class="link" y2="219" x2="1031" y1="204" x1="1070" />
  <line class="link" y2="642" x2="1063" y1="626" x1="1020" />
  <line class="link" y2="152" x2="1010" y1="140" x1="973" />
  <line class="link" y2="572" x2="1010" y1="684" x1="965" />
  <line class="link" y2="182" x2="985" y1="140" x1="973" />
  <line class="link" y2="728" x2="943" y1="684" x1="965" />
  <line class="link" y2="121" x2="955" y1="140" x1="973" />
  <line class="link" y2="728" x2="909" y1="684" x1="965" />
  <line class="link" y2="140" x2="973" y1="121" x1="955" />
  <line class="link" y2="429" x2="772" y1="401" x1="779" />
  <line class="link" y2="140" x2="973" y1="85" x1="938" />
  <line class="link" y2="440" x2="786" y1="401" x1="779" />
  <line class="link" y2="152" x2="1010" y1="109" x1="1020" />
  <line class="link" y2="745" x2="753" y1="742" x1="795" />
  <line class="link" y2="315" x2="379" y1="366" x1="349" />
  <line class="link" y2="670" x2="880" y1="742" x1="795" />
  <line class="link" y2="345" x2="331" y1="366" x1="349" />
  <line class="link" y2="795" x2="759" y1="742" x1="795" />
  <line class="link" y2="396" x2="362" y1="366" x1="349" />
  <line class="link" y2="205" x2="487" y1="213" x1="435" />
  <line class="link" y2="236" x2="403" y1="231" x1="369" />
  <line class="link" y2="236" x2="403" y1="297" x1="360" />
  <line class="link" y2="213" x2="435" y1="297" x1="360" />
  <line class="link" y2="418" x2="352" y1="297" x1="360" />
  <line class="link" y2="236" x2="403" y1="289" x1="390" />
  <line class="link" y2="213" x2="435" y1="289" x1="390" />
  <line class="link" y2="418" x2="352" y1="289" x1="390" />
  <line class="link" y2="115" x2="485" y1="100" x1="452" />
  <line class="link" y2="144" x2="425" y1="100" x1="452" />
  <line class="link" y2="315" x2="379" y1="298" x1="412" />
  <line class="link" y2="315" x2="379" y1="298" x1="412" />
  <line class="link" y2="236" x2="403" y1="298" x1="412" />
  <line class="link" y2="213" x2="435" y1="130" x1="514" />
  <line class="link" y2="82" x2="546" y1="130" x1="514" />
  <line class="link" y2="213" x2="435" y1="115" x1="485" />
  <line class="link" y2="587" x2="607" y1="630" x1="609" />
  <line class="link" y2="600" x2="638" y1="630" x1="609" />
  <line class="link" y2="501" x2="653" y1="600" x1="638" />
  <line class="link" y2="304" x2="766" y1="285" x1="801" />
  <line class="link" y2="304" x2="766" y1="277" x1="744" />
  <line class="link" y2="792" x2="887" y1="810" x1="935" />
  <line class="link" y2="231" x2="770" y1="200" x1="770" />
  <line class="link" y2="231" x2="770" y1="200" x1="770" />
  <line class="link" y2="304" x2="766" y1="231" x1="770" />
  <line class="link" y2="410" x2="645" y1="463" x1="657" />
  <line class="link" y2="501" x2="653" y1="463" x1="657" />
  <line class="link" y2="434" x2="621" y1="410" x1="645" />
  <line class="link" y2="389" x2="587" y1="410" x1="645" />
  <line class="link" y2="501" x2="653" y1="536" x1="615" />
  <line class="link" y2="354" x2="642" y1="361" x1="671" />
  <line class="link" y2="410" x2="645" y1="361" x1="671" />
  <line class="link" y2="236" x2="403" y1="209" x1="387" />
  <line class="link" y2="339" x2="905" y1="404" x1="892" />
  <line class="link" y2="443" x2="903" y1="404" x1="892" />
  <line class="link" y2="419" x2="862" y1="404" x1="892" />
  <line class="link" y2="482" x2="531" y1="431" x1="553" />
  <line class="link" y2="389" x2="587" y1="431" x1="553" />
  <line class="link" y2="438" x2="525" y1="389" x1="587" />
  <line class="link" y2="434" x2="621" y1="389" x1="587" />
  <line class="link" y2="243" x2="635" y1="389" x1="587" />
  <line class="link" y2="431" x2="553" y1="438" x1="525" />
  <line class="link" y2="389" x2="587" y1="438" x1="525" />
  <line class="link" y2="482" x2="531" y1="438" x1="525" />
  <line class="link" y2="438" x2="525" y1="460" x1="558" />
  <line class="link" y2="389" x2="587" y1="460" x1="558" />
  <line class="link" y2="464" x2="491" y1="460" x1="558" />
  <line class="link" y2="478" x2="694" y1="460" x1="558" />
  <line class="link" y2="728" x2="909" y1="670" x1="880" />
  <line class="link" y2="670" x2="880" y1="728" x1="909" />
  <line class="link" y2="728" x2="943" y1="728" x1="909" />
  <circle style="fill: rgb(255, 239, 213);" class="node" cy="650" cx="343" r="8" />
  <circle style="fill: rgb(255, 218, 185);" class="node" cy="449" cx="387" r="12" />
  <circle style="fill: rgb(124, 252, 0);" class="node" cy="609" cx="339" r="8" />
  <circle style="fill: rgb(144, 238, 144);" class="node" cy="219" cx="1031" r="14" />
  <circle style="fill: rgb(128, 128, 128);" class="node" cy="269" cx="1056" r="14" />
  <circle style="fill: rgb(0, 255, 0);" class="node" cy="292" cx="1083" r="10" />
  <circle style="fill: rgb(255, 255, 0);" class="node" cy="270" cx="1093" r="8" />
  <circle style="fill: rgb(245, 222, 179);" class="node" cy="322" cx="1081" r="10" />
  <circle style="fill: rgb(148, 0, 211);" class="node" cy="356" cx="1125" r="8" />
  <circle style="fill: rgb(255, 160, 122);" class="node" cy="182" cx="1009" r="8" />
  <circle style="fill: rgb(255, 127, 80);" class="node" cy="182" cx="985" r="8" />
  <circle style="fill: rgb(184, 134, 11);" class="node" cy="140" cx="973" r="16" />
  <circle style="fill: rgb(95, 158, 160);" class="node" cy="204" cx="1070" r="8" />
  <circle style="fill: rgb(34, 139, 34);" class="node" cy="152" cx="1010" r="10" />
  <circle style="fill: rgb(0, 255, 0);" class="node" cy="85" cx="938" r="8" />
  <circle style="fill: rgb(220, 20, 60);" class="node" cy="109" cx="1020" r="8" />
  <circle style="fill: rgb(240, 128, 128);" class="node" cy="121" cx="955" r="8" />
  <circle style="fill: rgb(250, 240, 230);" class="node" cy="345" cx="331" r="12" />
  <circle style="fill: rgb(244, 164, 96);" class="node" cy="315" cx="379" r="20" />
  <circle style="fill: rgb(255, 240, 245);" class="node" cy="366" cx="349" r="10" />
  <circle style="fill: rgb(169, 169, 169);" class="node" cy="213" cx="435" r="14" />
  <circle style="fill: rgb(210, 105, 30);" class="node" cy="352" cx="369" r="10" />
  <circle style="fill: rgb(255, 240, 245);" class="node" cy="365" cx="324" r="10" />
  <circle style="fill: rgb(255, 250, 240);" class="node" cy="298" cx="412" r="8" />
  <circle style="fill: rgb(0, 255, 0);" class="node" cy="289" cx="390" r="8" />
  <circle style="fill: rgb(240, 255, 240);" class="node" cy="231" cx="369" r="8" />
  <circle style="fill: rgb(255, 0, 255);" class="node" cy="144" cx="425" r="8" />
  <circle style="fill: rgb(218, 165, 32);" class="node" cy="100" cx="452" r="8" />
  <circle style="fill: rgb(138, 43, 226);" class="node" cy="297" cx="360" r="8" />
  <circle style="fill: rgb(255, 228, 225);" class="node" cy="117" cx="685" r="8" />
  <circle style="fill: rgb(255, 255, 224);" class="node" cy="115" cx="485" r="8" />
  <circle style="fill: rgb(255, 228, 181);" class="node" cy="130" cx="514" r="8" />
  <circle style="fill: rgb(255, 248, 220);" class="node" cy="33" cx="661" r="8" />
  <circle style="fill: rgb(0, 0, 139);" class="node" cy="190" cx="420" r="8" />
  <circle style="fill: rgb(192, 192, 192);" class="node" cy="82" cx="546" r="8" />
  <circle style="fill: rgb(128, 128, 128);" class="node" cy="44" cx="610" r="8" />
  <circle style="fill: rgb(0, 255, 255);" class="node" cy="190" cx="657" r="8" />
  <circle style="fill: rgb(152, 251, 152);" class="node" cy="115" cx="730" r="8" />
  <circle style="fill: rgb(220, 220, 220);" class="node" cy="339" cx="905" r="8" />
  <circle style="fill: rgb(255, 245, 238);" class="node" cy="164" cx="664" r="8" />
  <circle style="fill: rgb(152, 251, 152);" class="node" cy="153" cx="712" r="10" />
  <circle style="fill: rgb(160, 82, 45);" class="node" cy="404" cx="892" r="12" />
  <circle style="fill: rgb(211, 211, 211);" class="node" cy="630" cx="609" r="8" />
  <circle style="fill: rgb(102, 205, 170);" class="node" cy="539" cx="695" r="8" />
  <circle style="fill: rgb(211, 211, 211);" class="node" cy="460" cx="558" r="10" />
  <circle style="fill: rgb(123, 104, 238);" class="node" cy="600" cx="638" r="8" />
  <circle style="fill: rgb(253, 245, 230);" class="node" cy="587" cx="607" r="8" />
  <circle style="fill: rgb(222, 184, 135);" class="node" cy="513" cx="935" r="8" />
  <circle style="fill: rgb(255, 105, 180);" class="node" cy="389" cx="587" r="22" />
  <circle style="fill: rgb(186, 85, 211);" class="node" cy="431" cx="553" r="8" />
  <circle style="fill: rgb(255, 255, 0);" class="node" cy="670" cx="880" r="18" />
  <circle style="fill: rgb(210, 180, 140);" class="node" cy="438" cx="525" r="24" />
  <circle style="fill: rgb(218, 112, 214);" class="node" cy="482" cx="531" r="8" />
  <circle style="fill: rgb(240, 255, 255);" class="node" cy="728" cx="909" r="14" />
  <circle style="fill: rgb(60, 179, 113);" class="node" cy="684" cx="965" r="8" />
  <circle style="fill: rgb(255, 228, 196);" class="node" cy="419" cx="862" r="14" />
  <circle style="fill: rgb(250, 250, 210);" class="node" cy="107" cx="834" r="8" />
  <circle style="fill: rgb(220, 20, 60);" class="node" cy="401" cx="779" r="8" />
  <circle style="fill: rgb(139, 0, 139);" class="node" cy="626" cx="1020" r="8" />
  <circle style="fill: rgb(255, 240, 245);" class="node" cy="277" cx="744" r="8" />
  <circle style="fill: rgb(240, 230, 140);" class="node" cy="795" cx="759" r="8" />
  <circle style="fill: rgb(160, 82, 45);" class="node" cy="742" cx="795" r="8" />
  <circle style="fill: rgb(245, 255, 250);" class="node" cy="493" cx="801" r="8" />
  <circle style="fill: rgb(205, 133, 63);" class="node" cy="285" cx="801" r="8" />
  <circle style="fill: rgb(199, 21, 133);" class="node" cy="745" cx="753" r="8" />
  <circle style="fill: rgb(238, 130, 238);" class="node" cy="440" cx="786" r="20" />
  <circle style="fill: rgb(255, 0, 0);" class="node" cy="385" cx="711" r="8" />
  <circle style="fill: rgb(32, 178, 170);" class="node" cy="57" cx="820" r="8" />
  <circle style="fill: rgb(64, 224, 208);" class="node" cy="627" cx="833" r="8" />
  <circle style="fill: rgb(0, 128, 128);" class="node" cy="191" cx="687" r="16" />
  <circle style="fill: rgb(238, 130, 238);" class="node" cy="304" cx="766" r="10" />
  <circle style="fill: rgb(60, 179, 113);" class="node" cy="588" cx="758" r="8" />
  <circle style="fill: rgb(244, 164, 96);" class="node" cy="407" cx="839" r="8" />
  <circle style="fill: rgb(75, 0, 130);" class="node" cy="598" cx="702" r="8" />
  <circle style="fill: rgb(255, 228, 181);" class="node" cy="810" cx="935" r="8" />
  <circle style="fill: rgb(255, 255, 224);" class="node" cy="481" cx="834" r="8" />
  <circle style="fill: rgb(173, 255, 47);" class="node" cy="841" cx="895" r="8" />
  <circle style="fill: rgb(255, 250, 205);" class="node" cy="243" cx="635" r="8" />
  <circle style="fill: rgb(178, 34, 34);" class="node" cy="443" cx="903" r="12" />
  <circle style="fill: rgb(245, 245, 220);" class="node" cy="792" cx="887" r="14" />
  <circle style="fill: rgb(72, 209, 204);" class="node" cy="524" cx="1000" r="8" />
  <circle style="fill: rgb(255, 255, 240);" class="node" cy="521" cx="816" r="8" />
  <circle style="fill: rgb(107, 142, 35);" class="node" cy="825" cx="872" r="8" />
  <circle style="fill: rgb(245, 255, 250);" class="node" cy="572" cx="1010" r="8" />
  <circle style="fill: rgb(169, 169, 169);" class="node" cy="526" cx="1021" r="10" />
  <circle style="fill: rgb(238, 130, 238);" class="node" cy="616" cx="808" r="8" />
  <circle style="fill: rgb(233, 150, 122);" class="node" cy="737" cx="1039" r="8" />
  <circle style="fill: rgb(75, 0, 130);" class="node" cy="728" cx="943" r="8" />
  <circle style="fill: rgb(64, 224, 208);" class="node" cy="429" cx="772" r="8" />
  <circle style="fill: rgb(128, 0, 0);" class="node" cy="463" cx="657" r="8" />
  <circle style="fill: rgb(32, 178, 170);" class="node" cy="574" cx="916" r="10" />
  <circle style="fill: rgb(178, 34, 34);" class="node" cy="206" cx="580" r="8" />
  <circle style="fill: rgb(0, 255, 255);" class="node" cy="410" cx="645" r="8" />
  <circle style="fill: rgb(60, 179, 113);" class="node" cy="462" cx="969" r="18" />
  <circle style="fill: rgb(0, 128, 128);" class="node" cy="205" cx="487" r="8" />
  <circle style="fill: rgb(30, 144, 255);" class="node" cy="707" cx="1082" r="8" />
  <circle style="fill: rgb(255, 250, 240);" class="node" cy="231" cx="770" r="8" />
  <circle style="fill: rgb(255, 255, 240);" class="node" cy="870" cx="730" r="8" />
  <circle style="fill: rgb(106, 90, 205);" class="node" cy="587" cx="1114" r="8" />
  <circle style="fill: rgb(138, 43, 226);" class="node" cy="439" cx="936" r="8" />
  <circle style="fill: rgb(240, 230, 140);" class="node" cy="419" cx="991" r="8" />
  <circle style="fill: rgb(95, 158, 160);" class="node" cy="354" cx="642" r="8" />
  <circle style="fill: rgb(244, 164, 96);" class="node" cy="391" cx="937" r="12" />
  <circle style="fill: rgb(50, 205, 50);" class="node" cy="200" cx="770" r="8" />
  <circle style="fill: rgb(255, 105, 180);" class="node" cy="590" cx="1065" r="8" />
  <circle style="fill: rgb(160, 82, 45);" class="node" cy="468" cx="924" r="8" />
  <circle style="fill: rgb(255, 235, 205);" class="node" cy="390" cx="982" r="8" />
  <circle style="fill: rgb(220, 20, 60);" class="node" cy="837" cx="740" r="8" />
  <circle style="fill: rgb(0, 139, 139);" class="node" cy="454" cx="451" r="14" />
  <circle style="fill: rgb(70, 130, 180);" class="node" cy="694" cx="1047" r="8" />
  <circle style="fill: rgb(153, 50, 204);" class="node" cy="618" cx="888" r="12" />
  <circle style="fill: rgb(47, 79, 79);" class="node" cy="655" cx="701" r="8" />
  <circle style="fill: rgb(255, 245, 238);" class="node" cy="536" cx="615" r="8" />
  <circle style="fill: rgb(0, 250, 154);" class="node" cy="642" cx="882" r="14" />
  <circle style="fill: rgb(0, 128, 0);" class="node" cy="478" cx="694" r="10" />
  <circle style="fill: rgb(255, 222, 173);" class="node" cy="486" cx="1029" r="8" />
  <circle style="fill: rgb(32, 178, 170);" class="node" cy="690" cx="839" r="8" />
  <circle style="fill: rgb(154, 205, 50);" class="node" cy="361" cx="671" r="8" />
  <circle style="fill: rgb(221, 160, 221);" class="node" cy="464" cx="491" r="8" />
  <circle style="fill: rgb(221, 160, 221);" class="node" cy="462" cx="1114" r="10" />
  <circle style="fill: rgb(255, 218, 185);" class="node" cy="554" cx="657" r="8" />
  <circle style="fill: rgb(255, 99, 71);" class="node" cy="365" cx="578" r="8" />
  <circle style="fill: rgb(255, 228, 225);" class="node" cy="760" cx="540" r="18" />
  <circle style="fill: rgb(255, 228, 181);" class="node" cy="501" cx="653" r="16" />
  <circle style="fill: rgb(255, 0, 0);" class="node" cy="332" cx="610" r="8" />
  <circle style="fill: rgb(255, 255, 255);" class="node" cy="157" cx="874" r="8" />
  <circle style="fill: rgb(47, 79, 79);" class="node" cy="630" cx="902" r="14" />
  <circle style="fill: rgb(139, 0, 139);" class="node" cy="13" cx="626" r="8" />
  <circle style="fill: rgb(144, 238, 144);" class="node" cy="807" cx="618" r="8" />
  <circle style="fill: rgb(165, 42, 42);" class="node" cy="592" cx="967" r="10" />
  <circle style="fill: rgb(218, 165, 32);" class="node" cy="350" cx="876" r="8" />
  <circle style="fill: rgb(199, 21, 133);" class="node" cy="240" cx="893" r="8" />
  <circle style="fill: rgb(0, 255, 127);" class="node" cy="387" cx="1115" r="8" />
  <circle style="fill: rgb(255, 0, 255);" class="node" cy="475" cx="1143" r="8" />
  <circle style="fill: rgb(255, 215, 0);" class="node" cy="820" cx="534" r="8" />
  <circle style="fill: rgb(255, 0, 0);" class="node" cy="642" cx="1063" r="8" />
  <circle style="fill: rgb(192, 192, 192);" class="node" cy="449" cx="1083" r="12" />
  <circle style="fill: rgb(127, 255, 212);" class="node" cy="209" cx="387" r="8" />
  <circle style="fill: rgb(64, 224, 208);" class="node" cy="434" cx="621" r="8" />
  <circle style="fill: rgb(135, 206, 235);" class="node" cy="362" cx="1089" r="18" />
  <circle style="fill: rgb(222, 184, 135);" class="node" cy="801" cx="519" r="8" />
  <circle style="fill: rgb(0, 255, 0);" class="node" cy="590" cx="466" r="8" />
  <circle style="fill: rgb(0, 0, 139);" class="node" cy="803" cx="852" r="8" />
  <circle style="fill: rgb(220, 20, 60);" class="node" cy="770" cx="617" r="8" />
  <circle style="fill: rgb(211, 211, 211);" class="node" cy="734" cx="566" r="8" />
  <circle style="fill: rgb(192, 192, 192);" class="node" cy="565" cx="506" r="8" />
  <circle style="fill: rgb(153, 50, 204);" class="node" cy="178" cx="557" r="8" />
  <circle style="fill: rgb(60, 179, 113);" class="node" cy="197" cx="894" r="8" />
  <circle style="fill: rgb(240, 255, 255);" class="node" cy="551" cx="469" r="8" />
  <circle style="fill: rgb(0, 255, 0);" class="node" cy="276" cx="475" r="8" />
  <circle style="fill: rgb(147, 112, 219);" class="node" cy="726" cx="525" r="8" />
  <circle style="fill: rgb(50, 205, 50);" class="node" cy="804" cx="580" r="8" />
  <circle style="fill: rgb(199, 21, 133);" class="node" cy="844" cx="837" r="8" />
  <circle style="fill: rgb(255, 250, 250);" class="node" cy="193" cx="837" r="8" />
  <circle style="fill: rgb(240, 255, 255);" class="node" cy="216" cx="855" r="16" />
  <circle style="fill: rgb(240, 128, 128);" class="node" cy="396" cx="362" r="20" />
  <circle style="fill: rgb(100, 149, 237);" class="node" cy="622" cx="505" r="8" />
  <circle style="fill: rgb(224, 255, 255);" class="node" cy="819" cx="644" r="8" />
  <circle style="fill: rgb(255, 245, 238);" class="node" cy="602" cx="438" r="8" />
  <circle style="fill: rgb(154, 205, 50);" class="node" cy="155" cx="832" r="8" />
  <circle style="fill: rgb(144, 238, 144);" class="node" cy="770" cx="443" r="8" />
  <circle style="fill: rgb(238, 232, 170);" class="node" cy="859" cx="654" r="8" />
  <circle style="fill: rgb(222, 184, 135);" class="node" cy="740" cx="470" r="8" />
  <circle style="fill: rgb(219, 112, 147);" class="node" cy="711" cx="627" r="8" />
  <circle style="fill: rgb(255, 0, 0);" class="node" cy="418" cx="352" r="14" />
  <circle style="fill: rgb(240, 255, 255);" class="node" cy="769" cx="469" r="8" />
  <circle style="fill: rgb(218, 165, 32);" class="node" cy="484" cx="368" r="14" />
  <circle style="fill: rgb(65, 105, 225);" class="node" cy="733" cx="444" r="8" />
  <circle style="fill: rgb(0, 206, 209);" class="node" cy="511" cx="334" r="10" />
  <circle style="fill: rgb(0, 100, 0);" class="node" cy="307" cx="496" r="14" />
  <circle style="fill: rgb(255, 250, 250);" class="node" cy="538" cx="341" r="10" />
  <circle style="fill: rgb(105, 105, 105);" class="node" cy="236" cx="403" r="26" />
  <circle style="fill: rgb(245, 245, 220);" class="node" cy="515" cx="298" r="8" />
  <circle style="fill: rgb(255, 215, 0);" class="node" cy="287" cx="543" r="8" />
  <circle style="fill: rgb(176, 224, 230);" class="node" cy="473" cx="334" r="12" />
  <circle style="fill: rgb(25, 25, 112);" class="node" cy="244" cx="535" r="8" />
  <circle style="fill: rgb(127, 255, 212);" class="node" cy="458" cx="363" r="10" />
  <circle style="fill: rgb(199, 21, 133);" class="node" cy="347" cx="515" r="8" />
  <circle style="fill: rgb(32, 178, 170);" class="node" cy="296" cx="517" r="12" />
  <defs>
    <style type="text/css">.node {
    opacity: 0.85;
    stroke: #FFF;
    strokeOpacity: 0.8;
    strokeWidth: 0.5px;

}
.link {
    stroke: #CCC;
    strokeOpacity: 0.85;
    strokeWidth: 6;

}
</style>
  </defs>
</svg>