<?xml version="1.0" encoding="utf-8" standalone="no"?>
<svg xmlns:xsd="http://www.w3.org/2001/XMLSchema" xmlns:xsi="http://www.w3.org/2001/XMLSchema-instance" fill="#dbf3ff" width="1920px" height="1200px" xmlns:xlink="http://www.w3.org/1999/xlink" xmlns="http://www.w3.org/2000/svg">
  <line class="link" y2="971" x2="1094" y1="983" x1="1118" />
  <line class="link" y2="983" x2="1118" y1="913" x1="1025" />
  <line class="link" y2="187" x2="971" y1="112" x1="837" />
  <line class="link" y2="106" x2="955" y1="108" x1="927" />
  <line class="link" y2="135" x2="858" y1="131" x1="902" />
  <line class="link" y2="1024" x2="1095" y1="983" x1="1118" />
  <line class="link" y2="511" x2="1054" y1="503" x1="1090" />
  <line class="link" y2="124" x2="776" y1="135" x1="858" />
  <line class="link" y2="1034" x2="1088" y1="983" x1="1118" />
  <line class="link" y2="520" x2="1183" y1="546" x1="1107" />
  <line class="link" y2="213" x2="818" y1="135" x1="858" />
  <line class="link" y2="213" x2="818" y1="135" x1="858" />
  <line class="link" y2="546" x2="1107" y1="578" x1="1144" />
  <line class="link" y2="135" x2="858" y1="108" x1="927" />
  <line class="link" y2="106" x2="955" y1="135" x1="858" />
  <line class="link" y2="801" x2="893" y1="603" x1="830" />
  <line class="link" y2="538" x2="1079" y1="578" x1="1144" />
  <line class="link" y2="546" x2="1107" y1="503" x1="1090" />
  <line class="link" y2="726" x2="1206" y1="899" x1="1197" />
  <line class="link" y2="511" x2="1054" y1="532" x1="1074" />
  <line class="link" y2="661" x2="1009" y1="546" x1="1107" />
  <line class="link" y2="201" x2="1032" y1="244" x1="1034" />
  <line class="link" y2="372" x2="996" y1="538" x1="1046" />
  <line class="link" y2="538" x2="1079" y1="546" x1="1107" />
  <line class="link" y2="255" x2="1054" y1="201" x1="1032" />
  <line class="link" y2="466" x2="722" y1="493" x1="748" />
  <line class="link" y2="546" x2="1107" y1="532" x1="1074" />
  <line class="link" y2="201" x2="1032" y1="255" x1="1054" />
  <line class="link" y2="603" x2="830" y1="493" x1="748" />
  <line class="link" y2="538" x2="1046" y1="532" x1="1074" />
  <line class="link" y2="372" x2="996" y1="382" x1="983" />
  <line class="link" y2="372" x2="996" y1="401" x1="796" />
  <line class="link" y2="372" x2="996" y1="255" x1="1054" />
  <line class="link" y2="603" x2="1014" y1="526" x1="1019" />
  <line class="link" y2="405" x2="1016" y1="361" x1="992" />
  <line class="link" y2="213" x2="818" y1="172" x1="846" />
  <line class="link" y2="596" x2="470" y1="623" x1="414" />
  <line class="link" y2="372" x2="996" y1="526" x1="1019" />
  <line class="link" y2="372" x2="996" y1="361" x1="992" />
  <line class="link" y2="596" x2="470" y1="648" x1="438" />
  <line class="link" y2="538" x2="1046" y1="526" x1="1019" />
  <line class="link" y2="405" x2="1016" y1="382" x1="983" />
  <line class="link" y2="788" x2="1084" y1="748" x1="1136" />
  <line class="link" y2="372" x2="996" y1="297" x1="1054" />
  <line class="link" y2="372" x2="996" y1="405" x1="1016" />
  <line class="link" y2="809" x2="997" y1="748" x1="1136" />
  <line class="link" y2="255" x2="1054" y1="297" x1="1054" />
  <line class="link" y2="538" x2="1046" y1="603" x1="1014" />
  <line class="link" y2="852" x2="815" y1="982" x1="918" />
  <line class="link" y2="809" x2="997" y1="661" x1="1009" />
  <line class="link" y2="801" x2="893" y1="948" x1="952" />
  <line class="link" y2="500" x2="1177" y1="852" x1="815" />
  <line class="link" y2="603" x2="830" y1="661" x1="1009" />
  <line class="link" y2="546" x2="1107" y1="661" x1="1009" />
  <line class="link" y2="493" x2="748" y1="422" x1="723" />
  <line class="link" y2="466" x2="722" y1="411" x1="702" />
  <line class="link" y2="866" x2="813" y1="965" x1="810" />
  <line class="link" y2="487" x2="637" y1="422" x1="723" />
  <line class="link" y2="377" x2="734" y1="411" x1="702" />
  <line class="link" y2="997" x2="807" y1="965" x1="810" />
  <line class="link" y2="377" x2="734" y1="383" x1="682" />
  <line class="link" y2="377" x2="734" y1="422" x1="723" />
  <line class="link" y2="377" x2="734" y1="411" x1="702" />
  <line class="link" y2="401" x2="796" y1="383" x1="682" />
  <line class="link" y2="401" x2="796" y1="422" x1="723" />
  <line class="link" y2="411" x2="702" y1="422" x1="723" />
  <line class="link" y2="487" x2="637" y1="779" x1="643" />
  <line class="link" y2="377" x2="734" y1="383" x1="682" />
  <line class="link" y2="487" x2="637" y1="383" x1="682" />
  <line class="link" y2="713" x2="676" y1="770" x1="628" />
  <line class="link" y2="466" x2="722" y1="383" x1="682" />
  <line class="link" y2="303" x2="603" y1="383" x1="682" />
  <line class="link" y2="963" x2="1056" y1="955" x1="1035" />
  <line class="link" y2="843" x2="604" y1="770" x1="628" />
  <line class="link" y2="779" x2="643" y1="870" x1="671" />
  <line class="link" y2="809" x2="997" y1="955" x1="1035" />
  <line class="link" y2="779" x2="643" y1="770" x1="628" />
  <line class="link" y2="870" x2="671" y1="958" x1="715" />
  <line class="link" y2="1005" x2="1041" y1="955" x1="1035" />
  <line class="link" y2="770" x2="628" y1="843" x1="604" />
  <line class="link" y2="770" x2="628" y1="779" x1="643" />
  <line class="link" y2="558" x2="636" y1="680" x1="660" />
  <line class="link" y2="963" x2="1056" y1="884" x1="1043" />
  <line class="link" y2="870" x2="671" y1="779" x1="643" />
  <line class="link" y2="558" x2="636" y1="765" x1="722" />
  <line class="link" y2="558" x2="636" y1="705" x1="744" />
  <line class="link" y2="765" x2="722" y1="931" x1="773" />
  <line class="link" y2="822" x2="718" y1="765" x1="722" />
  <line class="link" y2="558" x2="636" y1="439" x1="623" />
  <line class="link" y2="822" x2="718" y1="931" x1="773" />
  <line class="link" y2="963" x2="1056" y1="1005" x1="1041" />
  <line class="link" y2="439" x2="623" y1="440" x1="652" />
  <line class="link" y2="801" x2="893" y1="705" x1="744" />
  <line class="link" y2="535" x2="511" y1="471" x1="486" />
  <line class="link" y2="558" x2="636" y1="440" x1="652" />
  <line class="link" y2="765" x2="722" y1="705" x1="744" />
  <line class="link" y2="741" x2="983" y1="730" x1="1016" />
  <line class="link" y2="809" x2="997" y1="730" x1="1016" />
  <line class="link" y2="558" x2="636" y1="490" x1="519" />
  <line class="link" y2="685" x2="1051" y1="730" x1="1016" />
  <line class="link" y2="718" x2="947" y1="730" x1="1016" />
  <line class="link" y2="535" x2="511" y1="528" x1="472" />
  <line class="link" y2="629" x2="1159" y1="616" x1="1161" />
  <line class="link" y2="782" x2="1011" y1="730" x1="1016" />
  <line class="link" y2="490" x2="519" y1="528" x1="472" />
  <line class="link" y2="726" x2="1206" y1="616" x1="1161" />
  <line class="link" y2="767" x2="979" y1="730" x1="1016" />
  <line class="link" y2="616" x2="1161" y1="730" x1="1016" />
  <line class="link" y2="663" x2="1242" y1="663" x1="1280" />
  <line class="link" y2="748" x2="1136" y1="663" x1="1280" />
  <line class="link" y2="782" x2="1011" y1="741" x1="983" />
  <line class="link" y2="748" x2="1136" y1="677" x1="1205" />
  <line class="link" y2="651" x2="1228" y1="663" x1="1280" />
  <line class="link" y2="767" x2="979" y1="741" x1="983" />
  <line class="link" y2="651" x2="1228" y1="677" x1="1205" />
  <line class="link" y2="681" x2="1278" y1="663" x1="1280" />
  <line class="link" y2="782" x2="1011" y1="832" x1="1043" />
  <line class="link" y2="658" x2="1189" y1="677" x1="1205" />
  <line class="link" y2="696" x2="1245" y1="663" x1="1280" />
  <line class="link" y2="616" x2="1161" y1="685" x1="1051" />
  <line class="link" y2="663" x2="1242" y1="681" x1="1278" />
  <line class="link" y2="658" x2="1189" y1="707" x1="1223" />
  <line class="link" y2="651" x2="1228" y1="658" x1="1189" />
  <line class="link" y2="651" x2="1228" y1="696" x1="1245" />
  <line class="link" y2="663" x2="1242" y1="707" x1="1223" />
  <line class="link" y2="635" x2="1149" y1="658" x1="1189" />
  <line class="link" y2="681" x2="1278" y1="696" x1="1245" />
  <line class="link" y2="651" x2="1228" y1="663" x1="1242" />
  <line class="link" y2="663" x2="1242" y1="635" x1="1149" />
  <line class="link" y2="748" x2="1136" y1="696" x1="1245" />
  <line class="link" y2="696" x2="1245" y1="681" x1="1278" />
  <line class="link" y2="658" x2="1189" y1="635" x1="1149" />
  <line class="link" y2="654" x2="715" y1="676" x1="700" />
  <line class="link" y2="586" x2="756" y1="437" x1="852" />
  <line class="link" y2="770" x2="628" y1="586" x1="756" />
  <line class="link" y2="713" x2="676" y1="676" x1="700" />
  <line class="link" y2="282" x2="930" y1="437" x1="852" />
  <line class="link" y2="654" x2="715" y1="586" x1="756" />
  <line class="link" y2="676" x2="700" y1="713" x1="676" />
  <line class="link" y2="253" x2="953" y1="437" x1="852" />
  <line class="link" y2="713" x2="676" y1="586" x1="756" />
  <line class="link" y2="770" x2="628" y1="713" x1="676" />
  <line class="link" y2="676" x2="700" y1="654" x1="715" />
  <line class="link" y2="676" x2="700" y1="586" x1="756" />
  <line class="link" y2="216" x2="966" y1="171" x1="999" />
  <line class="link" y2="282" x2="930" y1="298" x1="917" />
  <line class="link" y2="437" x2="852" y1="510" x1="905" />
  <line class="link" y2="216" x2="966" y1="128" x1="1048" />
  <line class="link" y2="253" x2="953" y1="298" x1="917" />
  <line class="link" y2="253" x2="953" y1="216" x1="966" />
  <line class="link" y2="253" x2="953" y1="148" x1="1040" />
  <line class="link" y2="216" x2="966" y1="282" x1="930" />
  <line class="link" y2="282" x2="930" y1="216" x1="966" />
  <line class="link" y2="625" x2="1286" y1="654" x1="1354" />
  <line class="link" y2="216" x2="966" y1="253" x1="953" />
  <line class="link" y2="171" x2="999" y1="216" x1="966" />
  <line class="link" y2="625" x2="1286" y1="627" x1="1344" />
  <line class="link" y2="621" x2="1224" y1="625" x1="1286" />
  <line class="link" y2="651" x2="1329" y1="625" x1="1286" />
  <line class="link" y2="639" x2="1315" y1="627" x1="1344" />
  <line class="link" y2="627" x2="1344" y1="639" x1="1315" />
  <line class="link" y2="663" x2="1280" y1="625" x1="1286" />
  <line class="link" y2="663" x2="1280" y1="627" x1="1344" />
  <line class="link" y2="663" x2="1280" y1="639" x1="1315" />
  <line class="link" y2="556" x2="1213" y1="625" x1="1286" />
  <line class="link" y2="625" x2="1286" y1="651" x1="1329" />
  <line class="link" y2="619" x2="1228" y1="639" x1="1315" />
  <line class="link" y2="616" x2="1161" y1="625" x1="1286" />
  <line class="link" y2="1034" x2="1088" y1="1024" x1="1095" />
  <line class="link" y2="625" x2="1286" y1="629" x1="1283" />
  <line class="link" y2="616" x2="1161" y1="619" x1="1228" />
  <line class="link" y2="971" x2="1094" y1="1024" x1="1095" />
  <line class="link" y2="625" x2="1286" y1="629" x1="1283" />
  <line class="link" y2="556" x2="1213" y1="619" x1="1228" />
  <line class="link" y2="1024" x2="1095" y1="1034" x1="1088" />
  <line class="link" y2="616" x2="1161" y1="629" x1="1283" />
  <line class="link" y2="651" x2="1228" y1="619" x1="1228" />
  <line class="link" y2="310" x2="1404" y1="305" x1="1341" />
  <line class="link" y2="556" x2="1213" y1="424" x1="1232" />
  <line class="link" y2="616" x2="1161" y1="621" x1="1224" />
  <line class="link" y2="354" x2="1253" y1="305" x1="1341" />
  <line class="link" y2="354" x2="1253" y1="424" x1="1232" />
  <line class="link" y2="556" x2="1213" y1="621" x1="1224" />
  <line class="link" y2="292" x2="1355" y1="305" x1="1341" />
  <line class="link" y2="556" x2="1213" y1="416" x1="1159" />
  <line class="link" y2="651" x2="1228" y1="621" x1="1224" />
  <line class="link" y2="852" x2="815" y1="1000" x1="836" />
  <line class="link" y2="354" x2="1253" y1="416" x1="1159" />
  <line class="link" y2="416" x2="1159" y1="404" x1="1071" />
  <line class="link" y2="852" x2="815" y1="769" x1="651" />
  <line class="link" y2="616" x2="1161" y1="550" x1="1180" />
  <line class="link" y2="481" x2="1079" y1="404" x1="1071" />
  <line class="link" y2="801" x2="893" y1="913" x1="1025" />
  <line class="link" y2="769" x2="651" y1="725" x1="615" />
  <line class="link" y2="895" x2="899" y1="895" x1="725" />
  <line class="link" y2="500" x2="1177" y1="473" x1="1399" />
  <line class="link" y2="131" x2="902" y1="108" x1="927" />
  <line class="link" y2="761" x2="689" y1="725" x1="615" />
  <line class="link" y2="895" x2="899" y1="960" x1="807" />
  <line class="link" y2="939" x2="754" y1="954" x1="728" />
  <line class="link" y2="532" x2="1074" y1="503" x1="1090" />
  <line class="link" y2="852" x2="815" y1="761" x1="689" />
  <line class="link" y2="895" x2="899" y1="998" x1="941" />
  <line class="link" y2="852" x2="815" y1="954" x1="728" />
  <line class="link" y2="592" x2="1094" y1="578" x1="1144" />
  <line class="link" y2="500" x2="1177" y1="435" x1="1311" />
  <line class="link" y2="703" x2="1212" y1="670" x1="1214" />
  <line class="link" y2="916" x2="833" y1="939" x1="754" />
  <line class="link" y2="592" x2="1094" y1="538" x1="1046" />
  <line class="link" y2="500" x2="1177" y1="487" x1="1163" />
  <line class="link" y2="538" x2="1079" y1="670" x1="1214" />
  <line class="link" y2="895" x2="899" y1="939" x1="754" />
  <line class="link" y2="603" x2="830" y1="466" x1="722" />
  <line class="link" y2="135" x2="858" y1="93" x1="836" />
  <line class="link" y2="895" x2="899" y1="916" x1="833" />
  <line class="link" y2="852" x2="815" y1="936" x1="743" />
  <line class="link" y2="546" x2="1107" y1="520" x1="1183" />
  <line class="link" y2="473" x2="1399" y1="468" x1="1458" />
  <line class="link" y2="852" x2="815" y1="916" x1="833" />
  <line class="link" y2="895" x2="725" y1="917" x1="662" />
  <line class="link" y2="971" x2="1094" y1="899" x1="1197" />
  <line class="link" y2="473" x2="1399" y1="468" x1="1458" />
  <line class="link" y2="285" x2="1173" y1="298" x1="1155" />
  <line class="link" y2="939" x2="754" y1="917" x1="662" />
  <line class="link" y2="372" x2="996" y1="244" x1="1034" />
  <line class="link" y2="236" x2="1187" y1="298" x1="1155" />
  <line class="link" y2="971" x2="1094" y1="895" x1="899" />
  <line class="link" y2="616" x2="1161" y1="589" x1="1175" />
  <line class="link" y2="255" x2="1054" y1="244" x1="1034" />
  <line class="link" y2="336" x2="1273" y1="298" x1="1155" />
  <line class="link" y2="850" x2="947" y1="809" x1="997" />
  <line class="link" y2="703" x2="1212" y1="592" x1="1094" />
  <line class="link" y2="592" x2="1094" y1="526" x1="1019" />
  <line class="link" y2="228" x2="1223" y1="298" x1="1155" />
  <line class="link" y2="895" x2="899" y1="809" x1="997" />
  <line class="link" y2="538" x2="1046" y1="592" x1="1094" />
  <line class="link" y2="538" x2="1079" y1="405" x1="1016" />
  <line class="link" y2="278" x2="1253" y1="298" x1="1155" />
  <line class="link" y2="799" x2="949" y1="809" x1="997" />
  <line class="link" y2="538" x2="1079" y1="592" x1="1094" />
  <line class="link" y2="748" x2="1136" y1="788" x1="1084" />
  <line class="link" y2="187" x2="971" y1="298" x1="1155" />
  <line class="link" y2="809" x2="997" y1="785" x1="1029" />
  <line class="link" y2="799" x2="949" y1="850" x1="947" />
  <line class="link" y2="809" x2="997" y1="788" x1="1084" />
  <line class="link" y2="500" x2="1177" y1="298" x1="1155" />
  <line class="link" y2="895" x2="899" y1="785" x1="1029" />
  <line class="link" y2="895" x2="899" y1="850" x1="947" />
  <line class="link" y2="374" x2="498" y1="422" x1="538" />
  <line class="link" y2="405" x2="1016" y1="298" x1="1155" />
  <line class="link" y2="788" x2="1084" y1="785" x1="1029" />
  <line class="link" y2="809" x2="997" y1="895" x1="899" />
  <line class="link" y2="487" x2="637" y1="422" x1="538" />
  <line class="link" y2="616" x2="1161" y1="589" x1="1175" />
  <line class="link" y2="661" x2="1009" y1="785" x1="1029" />
  <line class="link" y2="916" x2="833" y1="895" x1="899" />
  <line class="link" y2="487" x2="637" y1="411" x1="702" />
  <line class="link" y2="748" x2="1136" y1="785" x1="1029" />
  <line class="link" y2="213" x2="818" y1="377" x1="734" />
  <line class="link" y2="201" x2="1032" y1="160" x1="914" />
  <line class="link" y2="401" x2="796" y1="411" x1="702" />
  <line class="link" y2="538" x2="1079" y1="465" x1="860" />
  <line class="link" y2="377" x2="734" y1="213" x1="818" />
  <line class="link" y2="172" x2="846" y1="160" x1="914" />
  <line class="link" y2="377" x2="734" y1="422" x1="723" />
  <line class="link" y2="401" x2="796" y1="465" x1="860" />
  <line class="link" y2="172" x2="846" y1="213" x1="818" />
  <line class="link" y2="213" x2="818" y1="160" x1="914" />
  <line class="link" y2="411" x2="702" y1="383" x1="682" />
  <line class="link" y2="405" x2="1016" y1="465" x1="860" />
  <line class="link" y2="520" x2="1183" y1="520" x1="1228" />
  <line class="link" y2="958" x2="715" y1="870" x1="671" />
  <line class="link" y2="546" x2="1107" y1="538" x1="1079" />
  <line class="link" y2="546" x2="1107" y1="520" x1="1228" />
  <line class="link" y2="779" x2="643" y1="870" x1="671" />
  <line class="link" y2="465" x2="860" y1="521" x1="592" />
  <line class="link" y2="790" x2="871" y1="683" x1="806" />
  <line class="link" y2="853" x2="1040" y1="884" x1="1043" />
  <line class="link" y2="596" x2="470" y1="521" x1="592" />
  <line class="link" y2="377" x2="734" y1="683" x1="806" />
  <line class="link" y2="809" x2="997" y1="884" x1="1043" />
  <line class="link" y2="512" x2="546" y1="521" x1="592" />
  <line class="link" y2="866" x2="813" y1="683" x1="806" />
  <line class="link" y2="822" x2="718" y1="680" x1="660" />
  <line class="link" y2="558" x2="636" y1="485" x1="629" />
  <line class="link" y2="558" x2="636" y1="541" x1="727" />
  <line class="link" y2="1069" x2="844" y1="931" x1="773" />
  <line class="link" y2="490" x2="519" y1="471" x1="486" />
  <line class="link" y2="528" x2="472" y1="535" x1="511" />
  <line class="link" y2="558" x2="636" y1="535" x1="511" />
  <line class="link" y2="471" x2="486" y1="490" x1="519" />
  <line class="link" y2="741" x2="983" y1="767" x1="979" />
  <line class="link" y2="809" x2="997" y1="767" x1="979" />
  <line class="link" y2="685" x2="1051" y1="741" x1="983" />
  <line class="link" y2="718" x2="947" y1="741" x1="983" />
  <line class="link" y2="635" x2="1149" y1="677" x1="1205" />
  <line class="link" y2="681" x2="1278" y1="677" x1="1205" />
  <line class="link" y2="696" x2="1245" y1="677" x1="1205" />
  <line class="link" y2="663" x2="1242" y1="677" x1="1205" />
  <line class="link" y2="635" x2="1149" y1="546" x1="943" />
  <line class="link" y2="546" x2="943" y1="498" x1="868" />
  <line class="link" y2="437" x2="852" y1="586" x1="756" />
  <line class="link" y2="437" x2="852" y1="586" x1="756" />
  <line class="link" y2="770" x2="628" y1="825" x1="576" />
  <line class="link" y2="770" x2="628" y1="825" x1="576" />
  <line class="link" y2="437" x2="852" y1="298" x1="917" />
  <line class="link" y2="216" x2="966" y1="298" x1="917" />
  <line class="link" y2="639" x2="1315" y1="654" x1="1354" />
  <line class="link" y2="663" x2="1280" y1="654" x1="1354" />
  <line class="link" y2="627" x2="1344" y1="654" x1="1354" />
  <line class="link" y2="651" x2="1329" y1="654" x1="1354" />
  <line class="link" y2="639" x2="1315" y1="651" x1="1329" />
  <line class="link" y2="663" x2="1280" y1="651" x1="1329" />
  <line class="link" y2="726" x2="1206" y1="556" x1="1213" />
  <line class="link" y2="616" x2="1161" y1="629" x1="1159" />
  <line class="link" y2="556" x2="1213" y1="550" x1="1180" />
  <line class="link" y2="616" x2="1161" y1="481" x1="1079" />
  <line class="link" y2="983" x2="1118" y1="962" x1="1120" />
  <line class="link" y2="998" x2="1174" y1="1008" x1="1222" />
  <line class="link" y2="998" x2="1174" y1="1008" x1="1222" />
  <line class="link" y2="983" x2="1118" y1="998" x1="1174" />
  <line class="link" y2="983" x2="1118" y1="998" x1="1174" />
  <line class="link" y2="983" x2="1118" y1="998" x1="1174" />
  <circle style="fill: rgb(139, 69, 19);" class="node" cy="498" cx="868" r="8" />
  <circle style="fill: rgb(255, 255, 255);" class="node" cy="437" cx="852" r="14" />
  <circle style="fill: rgb(255, 182, 193);" class="node" cy="676" cx="700" r="10" />
  <circle style="fill: rgb(250, 250, 210);" class="node" cy="298" cx="917" r="8" />
  <circle style="fill: rgb(46, 139, 87);" class="node" cy="510" cx="905" r="8" />
  <circle style="fill: rgb(169, 169, 169);" class="node" cy="148" cx="1040" r="8" />
  <circle style="fill: rgb(0, 128, 0);" class="node" cy="639" cx="1315" r="12" />
  <circle style="fill: rgb(85, 107, 47);" class="node" cy="651" cx="1329" r="10" />
  <circle style="fill: rgb(139, 0, 0);" class="node" cy="619" cx="1228" r="8" />
  <circle style="fill: rgb(100, 149, 237);" class="node" cy="621" cx="1224" r="8" />
  <circle style="fill: rgb(240, 255, 240);" class="node" cy="481" cx="1079" r="8" />
  <circle style="fill: rgb(65, 105, 225);" class="node" cy="962" cx="1120" r="8" />
  <circle style="fill: rgb(0, 255, 0);" class="node" cy="310" cx="1404" r="8" />
  <circle style="fill: rgb(255, 255, 255);" class="node" cy="305" cx="1341" r="8" />
  <circle style="fill: rgb(169, 169, 169);" class="node" cy="703" cx="1212" r="8" />
  <circle style="fill: rgb(0, 100, 0);" class="node" cy="592" cx="1094" r="12" />
  <circle style="fill: rgb(240, 255, 255);" class="node" cy="785" cx="1029" r="10" />
  <circle style="fill: rgb(250, 235, 215);" class="node" cy="465" cx="860" r="8" />
  <circle style="fill: rgb(175, 238, 238);" class="node" cy="377" cx="734" r="18" />
  <circle style="fill: rgb(255, 250, 240);" class="node" cy="213" cx="818" r="14" />
  <circle style="fill: rgb(255, 140, 0);" class="node" cy="187" cx="971" r="8" />
  <circle style="fill: rgb(245, 255, 250);" class="node" cy="487" cx="1163" r="8" />
  <circle style="fill: rgb(255, 250, 240);" class="node" cy="801" cx="893" r="8" />
  <circle style="fill: rgb(128, 0, 128);" class="node" cy="131" cx="902" r="8" />
  <circle style="fill: rgb(169, 169, 169);" class="node" cy="538" cx="1046" r="12" />
  <circle style="fill: rgb(152, 251, 152);" class="node" cy="511" cx="1054" r="8" />
  <circle style="fill: rgb(127, 255, 0);" class="node" cy="466" cx="722" r="8" />
  <circle style="fill: rgb(255, 228, 181);" class="node" cy="603" cx="830" r="8" />
  <circle style="fill: rgb(220, 20, 60);" class="node" cy="93" cx="836" r="8" />
  <circle style="fill: rgb(211, 211, 211);" class="node" cy="971" cx="1094" r="8" />
  <circle style="fill: rgb(70, 130, 180);" class="node" cy="244" cx="1034" r="8" />
  <circle style="fill: rgb(173, 216, 230);" class="node" cy="201" cx="1032" r="8" />
  <circle style="fill: rgb(124, 252, 0);" class="node" cy="623" cx="414" r="8" />
  <circle style="fill: rgb(255, 215, 0);" class="node" cy="954" cx="728" r="8" />
  <circle style="fill: rgb(255, 240, 245);" class="node" cy="939" cx="754" r="8" />
  <circle style="fill: rgb(46, 139, 87);" class="node" cy="648" cx="438" r="8" />
  <circle style="fill: rgb(219, 112, 147);" class="node" cy="374" cx="498" r="8" />
  <circle style="fill: rgb(30, 144, 255);" class="node" cy="895" cx="725" r="8" />
  <circle style="fill: rgb(255, 160, 122);" class="node" cy="422" cx="538" r="8" />
  <circle style="fill: rgb(0, 255, 127);" class="node" cy="965" cx="810" r="8" />
  <circle style="fill: rgb(30, 144, 255);" class="node" cy="422" cx="723" r="12" />
  <circle style="fill: rgb(255, 255, 224);" class="node" cy="383" cx="682" r="14" />
  <circle style="fill: rgb(199, 21, 133);" class="node" cy="303" cx="603" r="8" />
  <circle style="fill: rgb(128, 0, 0);" class="node" cy="870" cx="671" r="10" />
  <circle style="fill: rgb(199, 21, 133);" class="node" cy="558" cx="636" r="18" />
  <circle style="fill: rgb(0, 255, 255);" class="node" cy="285" cx="1173" r="8" />
  <circle style="fill: rgb(75, 0, 130);" class="node" cy="822" cx="718" r="8" />
  <circle style="fill: rgb(153, 50, 204);" class="node" cy="236" cx="1187" r="8" />
  <circle style="fill: rgb(106, 90, 205);" class="node" cy="931" cx="773" r="8" />
  <circle style="fill: rgb(0, 0, 128);" class="node" cy="278" cx="1253" r="8" />
  <circle style="fill: rgb(0, 128, 0);" class="node" cy="1069" cx="844" r="8" />
  <circle style="fill: rgb(255, 248, 220);" class="node" cy="705" cx="744" r="8" />
  <circle style="fill: rgb(128, 128, 0);" class="node" cy="490" cx="519" r="8" />
  <circle style="fill: rgb(192, 192, 192);" class="node" cy="528" cx="472" r="8" />
  <circle style="fill: rgb(160, 82, 45);" class="node" cy="730" cx="1016" r="14" />
  <circle style="fill: rgb(148, 0, 211);" class="node" cy="616" cx="1161" r="26" />
  <circle style="fill: rgb(255, 0, 255);" class="node" cy="546" cx="943" r="8" />
  <circle style="fill: rgb(0, 100, 0);" class="node" cy="586" cx="756" r="14" />
  <circle style="fill: rgb(184, 134, 11);" class="node" cy="713" cx="676" r="10" />
  <circle style="fill: rgb(255, 250, 240);" class="node" cy="282" cx="930" r="8" />
  <circle style="fill: rgb(138, 43, 226);" class="node" cy="216" cx="966" r="16" />
  <circle style="fill: rgb(255, 255, 224);" class="node" cy="128" cx="1048" r="8" />
  <circle style="fill: rgb(95, 158, 160);" class="node" cy="625" cx="1286" r="20" />
  <circle style="fill: rgb(176, 196, 222);" class="node" cy="629" cx="1159" r="8" />
  <circle style="fill: rgb(240, 248, 255);" class="node" cy="404" cx="1071" r="8" />
  <circle style="fill: rgb(144, 238, 144);" class="node" cy="629" cx="1283" r="8" />
  <circle style="fill: rgb(34, 139, 34);" class="node" cy="1008" cx="1222" r="8" />
  <circle style="fill: rgb(0, 250, 154);" class="node" cy="998" cx="1174" r="10" />
  <circle style="fill: rgb(0, 255, 255);" class="node" cy="1000" cx="836" r="8" />
  <circle style="fill: rgb(165, 42, 42);" class="node" cy="769" cx="651" r="8" />
  <circle style="fill: rgb(144, 238, 144);" class="node" cy="850" cx="947" r="8" />
  <circle style="fill: rgb(160, 82, 45);" class="node" cy="799" cx="949" r="8" />
  <circle style="fill: rgb(175, 238, 238);" class="node" cy="538" cx="1079" r="14" />
  <circle style="fill: rgb(119, 136, 153);" class="node" cy="521" cx="592" r="8" />
  <circle style="fill: rgb(173, 216, 230);" class="node" cy="683" cx="806" r="8" />
  <circle style="fill: rgb(70, 130, 180);" class="node" cy="790" cx="871" r="8" />
  <circle style="fill: rgb(0, 0, 205);" class="node" cy="112" cx="837" r="8" />
  <circle style="fill: rgb(188, 143, 143);" class="node" cy="500" cx="1177" r="10" />
  <circle style="fill: rgb(210, 180, 140);" class="node" cy="135" cx="858" r="14" />
  <circle style="fill: rgb(255, 0, 255);" class="node" cy="108" cx="927" r="8" />
  <circle style="fill: rgb(255, 20, 147);" class="node" cy="493" cx="748" r="8" />
  <circle style="fill: rgb(64, 224, 208);" class="node" cy="520" cx="1183" r="8" />
  <circle style="fill: rgb(222, 184, 135);" class="node" cy="899" cx="1197" r="8" />
  <circle style="fill: rgb(95, 158, 160);" class="node" cy="726" cx="1206" r="8" />
  <circle style="fill: rgb(255, 140, 0);" class="node" cy="997" cx="807" r="8" />
  <circle style="fill: rgb(144, 238, 144);" class="node" cy="361" cx="992" r="8" />
  <circle style="fill: rgb(47, 79, 79);" class="node" cy="468" cx="1458" r="8" />
  <circle style="fill: rgb(119, 136, 153);" class="node" cy="382" cx="983" r="8" />
  <circle style="fill: rgb(0, 255, 255);" class="node" cy="596" cx="470" r="8" />
  <circle style="fill: rgb(205, 133, 63);" class="node" cy="936" cx="743" r="8" />
  <circle style="fill: rgb(0, 250, 154);" class="node" cy="297" cx="1054" r="8" />
  <circle style="fill: rgb(210, 180, 140);" class="node" cy="788" cx="1084" r="8" />
  <circle style="fill: rgb(219, 112, 147);" class="node" cy="960" cx="807" r="8" />
  <circle style="fill: rgb(160, 82, 45);" class="node" cy="998" cx="941" r="8" />
  <circle style="fill: rgb(165, 42, 42);" class="node" cy="292" cx="1355" r="8" />
  <circle style="fill: rgb(238, 130, 238);" class="node" cy="670" cx="1214" r="8" />
  <circle style="fill: rgb(128, 0, 128);" class="node" cy="958" cx="715" r="8" />
  <circle style="fill: rgb(64, 224, 208);" class="node" cy="779" cx="643" r="12" />
  <circle style="fill: rgb(218, 112, 214);" class="node" cy="770" cx="628" r="18" />
  <circle style="fill: rgb(220, 20, 60);" class="node" cy="106" cx="955" r="8" />
  <circle style="fill: rgb(138, 43, 226);" class="node" cy="884" cx="1043" r="8" />
  <circle style="fill: rgb(0, 255, 0);" class="node" cy="955" cx="1035" r="8" />
  <circle style="fill: rgb(175, 238, 238);" class="node" cy="680" cx="660" r="8" />
  <circle style="fill: rgb(0, 128, 128);" class="node" cy="298" cx="1155" r="16" />
  <circle style="fill: rgb(106, 90, 205);" class="node" cy="439" cx="623" r="8" />
  <circle style="fill: rgb(255, 255, 224);" class="node" cy="589" cx="1175" r="8" />
  <circle style="fill: rgb(0, 139, 139);" class="node" cy="440" cx="652" r="8" />
  <circle style="fill: rgb(0, 100, 0);" class="node" cy="765" cx="722" r="8" />
  <circle style="fill: rgb(147, 112, 219);" class="node" cy="718" cx="947" r="8" />
  <circle style="fill: rgb(255, 0, 0);" class="node" cy="782" cx="1011" r="8" />
  <circle style="fill: rgb(255, 99, 71);" class="node" cy="767" cx="979" r="8" />
  <circle style="fill: rgb(189, 183, 107);" class="node" cy="741" cx="983" r="12" />
  <circle style="fill: rgb(0, 255, 127);" class="node" cy="707" cx="1223" r="8" />
  <circle style="fill: rgb(50, 205, 50);" class="node" cy="663" cx="1242" r="12" />
  <circle style="fill: rgb(32, 178, 170);" class="node" cy="681" cx="1278" r="10" />
  <circle style="fill: rgb(210, 105, 30);" class="node" cy="696" cx="1245" r="12" />
  <circle style="fill: rgb(0, 250, 154);" class="node" cy="654" cx="715" r="8" />
  <circle style="fill: rgb(154, 205, 50);" class="node" cy="825" cx="576" r="8" />
  <circle style="fill: rgb(244, 164, 96);" class="node" cy="253" cx="953" r="10" />
  <circle style="fill: rgb(244, 164, 96);" class="node" cy="171" cx="999" r="8" />
  <circle style="fill: rgb(255, 255, 255);" class="node" cy="654" cx="1354" r="10" />
  <circle style="fill: rgb(72, 61, 139);" class="node" cy="627" cx="1344" r="10" />
  <circle style="fill: rgb(211, 211, 211);" class="node" cy="556" cx="1213" r="14" />
  <circle style="fill: rgb(173, 216, 230);" class="node" cy="424" cx="1232" r="8" />
  <circle style="fill: rgb(34, 139, 34);" class="node" cy="354" cx="1253" r="8" />
  <circle style="fill: rgb(233, 150, 122);" class="node" cy="416" cx="1159" r="8" />
  <circle style="fill: rgb(189, 183, 107);" class="node" cy="550" cx="1180" r="8" />
  <circle style="fill: rgb(184, 134, 11);" class="node" cy="1024" cx="1095" r="8" />
  <circle style="fill: rgb(250, 250, 210);" class="node" cy="1034" cx="1088" r="8" />
  <circle style="fill: rgb(128, 128, 128);" class="node" cy="725" cx="615" r="8" />
  <circle style="fill: rgb(255, 228, 181);" class="node" cy="761" cx="689" r="8" />
  <circle style="fill: rgb(240, 248, 255);" class="node" cy="895" cx="899" r="22" />
  <circle style="fill: rgb(218, 165, 32);" class="node" cy="809" cx="997" r="24" />
  <circle style="fill: rgb(248, 248, 255);" class="node" cy="160" cx="914" r="8" />
  <circle style="fill: rgb(176, 224, 230);" class="node" cy="520" cx="1228" r="8" />
  <circle style="fill: rgb(34, 139, 34);" class="node" cy="866" cx="813" r="8" />
  <circle style="fill: rgb(255, 240, 245);" class="node" cy="435" cx="1311" r="8" />
  <circle style="fill: rgb(255, 255, 240);" class="node" cy="913" cx="1025" r="8" />
  <circle style="fill: rgb(0, 255, 255);" class="node" cy="983" cx="1118" r="16" />
  <circle style="fill: rgb(255, 222, 173);" class="node" cy="503" cx="1090" r="8" />
  <circle style="fill: rgb(153, 50, 204);" class="node" cy="546" cx="1107" r="20" />
  <circle style="fill: rgb(169, 169, 169);" class="node" cy="578" cx="1144" r="8" />
  <circle style="fill: rgb(255, 215, 0);" class="node" cy="532" cx="1074" r="8" />
  <circle style="fill: rgb(0, 100, 0);" class="node" cy="255" cx="1054" r="10" />
  <circle style="fill: rgb(199, 21, 133);" class="node" cy="172" cx="846" r="8" />
  <circle style="fill: rgb(255, 240, 245);" class="node" cy="401" cx="796" r="10" />
  <circle style="fill: rgb(255, 99, 71);" class="node" cy="372" cx="996" r="18" />
  <circle style="fill: rgb(160, 82, 45);" class="node" cy="473" cx="1399" r="8" />
  <circle style="fill: rgb(192, 192, 192);" class="node" cy="526" cx="1019" r="8" />
  <circle style="fill: rgb(169, 169, 169);" class="node" cy="405" cx="1016" r="12" />
  <circle style="fill: rgb(143, 188, 139);" class="node" cy="603" cx="1014" r="8" />
  <circle style="fill: rgb(0, 128, 128);" class="node" cy="748" cx="1136" r="14" />
  <circle style="fill: rgb(240, 248, 255);" class="node" cy="948" cx="952" r="8" />
  <circle style="fill: rgb(255, 218, 185);" class="node" cy="661" cx="1009" r="10" />
  <circle style="fill: rgb(192, 192, 192);" class="node" cy="917" cx="662" r="8" />
  <circle style="fill: rgb(240, 255, 255);" class="node" cy="982" cx="918" r="8" />
  <circle style="fill: rgb(220, 220, 220);" class="node" cy="852" cx="815" r="16" />
  <circle style="fill: rgb(0, 0, 139);" class="node" cy="411" cx="702" r="14" />
  <circle style="fill: rgb(0, 255, 127);" class="node" cy="487" cx="637" r="10" />
  <circle style="fill: rgb(154, 205, 50);" class="node" cy="843" cx="604" r="8" />
  <circle style="fill: rgb(250, 250, 210);" class="node" cy="512" cx="546" r="8" />
  <circle style="fill: rgb(250, 128, 114);" class="node" cy="916" cx="833" r="8" />
  <circle style="fill: rgb(153, 50, 204);" class="node" cy="963" cx="1056" r="8" />
  <circle style="fill: rgb(0, 206, 209);" class="node" cy="485" cx="629" r="8" />
  <circle style="fill: rgb(34, 139, 34);" class="node" cy="336" cx="1273" r="8" />
  <circle style="fill: rgb(192, 192, 192);" class="node" cy="541" cx="727" r="8" />
  <circle style="fill: rgb(255, 228, 181);" class="node" cy="228" cx="1223" r="8" />
  <circle style="fill: rgb(253, 245, 230);" class="node" cy="853" cx="1040" r="8" />
  <circle style="fill: rgb(0, 0, 0);" class="node" cy="1005" cx="1041" r="8" />
  <circle style="fill: rgb(72, 209, 204);" class="node" cy="471" cx="486" r="8" />
  <circle style="fill: rgb(255, 218, 185);" class="node" cy="535" cx="511" r="8" />
  <circle style="fill: rgb(240, 230, 140);" class="node" cy="832" cx="1043" r="8" />
  <circle style="fill: rgb(255, 0, 255);" class="node" cy="685" cx="1051" r="8" />
  <circle style="fill: rgb(176, 224, 230);" class="node" cy="124" cx="776" r="8" />
  <circle style="fill: rgb(25, 25, 112);" class="node" cy="663" cx="1280" r="20" />
  <circle style="fill: rgb(0, 191, 255);" class="node" cy="651" cx="1228" r="14" />
  <circle style="fill: rgb(255, 255, 240);" class="node" cy="677" cx="1205" r="14" />
  <circle style="fill: rgb(240, 248, 255);" class="node" cy="658" cx="1189" r="10" />
  <circle style="fill: rgb(0, 250, 154);" class="node" cy="635" cx="1149" r="10" />
  <defs>
    <style type="text/css">.node {
    opacity: 0.85;
    stroke: #FFF;
    strokeOpacity: 0.8;
    strokeWidth: 0.5px;

}
.link {
    stroke: #CCC;
    strokeOpacity: 0.85;
    strokeWidth: 6;

}
</style>
  </defs>
</svg>