<?xml version="1.0" encoding="utf-8" standalone="no"?>
<svg xmlns:xsd="http://www.w3.org/2001/XMLSchema" xmlns:xsi="http://www.w3.org/2001/XMLSchema-instance" fill="#dbf3ff" width="1920px" height="1200px" xmlns:xlink="http://www.w3.org/1999/xlink" xmlns="http://www.w3.org/2000/svg">
  <line class="link" y2="974" x2="915" y1="1028" x1="954" />
  <line class="link" y2="463" x2="1064" y1="420" x1="1233" />
  <line class="link" y2="429" x2="1173" y1="420" x1="1233" />
  <line class="link" y2="415" x2="1202" y1="420" x1="1233" />
  <line class="link" y2="621" x2="1273" y1="577" x1="1308" />
  <line class="link" y2="680" x2="1190" y1="621" x1="1273" />
  <line class="link" y2="582" x2="1260" y1="621" x1="1273" />
  <line class="link" y2="601" x2="1353" y1="621" x1="1273" />
  <line class="link" y2="680" x2="1190" y1="621" x1="1273" />
  <line class="link" y2="577" x2="1308" y1="588" x1="1331" />
  <line class="link" y2="601" x2="1353" y1="588" x1="1331" />
  <line class="link" y2="621" x2="1273" y1="588" x1="1331" />
  <line class="link" y2="338" x2="926" y1="242" x1="903" />
  <line class="link" y2="279" x2="893" y1="242" x1="903" />
  <line class="link" y2="206" x2="886" y1="242" x1="903" />
  <line class="link" y2="435" x2="942" y1="338" x1="926" />
  <line class="link" y2="307" x2="954" y1="338" x1="926" />
  <line class="link" y2="427" x2="899" y1="338" x1="926" />
  <line class="link" y2="338" x2="926" y1="279" x1="893" />
  <line class="link" y2="398" x2="871" y1="279" x1="893" />
  <line class="link" y2="369" x2="870" y1="398" x1="871" />
  <line class="link" y2="597" x2="919" y1="398" x1="871" />
  <line class="link" y2="502" x2="1136" y1="571" x1="1158" />
  <line class="link" y2="531" x2="1281" y1="502" x1="1136" />
  <line class="link" y2="541" x2="688" y1="494" x1="887" />
  <line class="link" y2="463" x2="1064" y1="494" x1="887" />
  <line class="link" y2="733" x2="1016" y1="720" x1="956" />
  <line class="link" y2="597" x2="919" y1="720" x1="956" />
  <line class="link" y2="597" x2="919" y1="603" x1="890" />
  <line class="link" y2="642" x2="872" y1="618" x1="857" />
  <line class="link" y2="597" x2="919" y1="618" x1="857" />
  <line class="link" y2="386" x2="828" y1="436" x1="864" />
  <line class="link" y2="597" x2="919" y1="642" x1="872" />
  <line class="link" y2="398" x2="871" y1="386" x1="828" />
  <line class="link" y2="881" x2="658" y1="931" x1="641" />
  <line class="link" y2="881" x2="658" y1="895" x1="608" />
  <line class="link" y2="541" x2="799" y1="435" x1="942" />
  <line class="link" y2="502" x2="1136" y1="435" x1="942" />
  <line class="link" y2="806" x2="1121" y1="746" x1="1128" />
  <line class="link" y2="586" x2="1121" y1="746" x1="1128" />
  <line class="link" y2="667" x2="1144" y1="631" x1="1123" />
  <line class="link" y2="586" x2="1121" y1="631" x1="1123" />
  <line class="link" y2="628" x2="1047" y1="631" x1="1123" />
  <line class="link" y2="667" x2="1144" y1="631" x1="1123" />
  <line class="link" y2="571" x2="1158" y1="634" x1="1148" />
  <line class="link" y2="344" x2="1146" y1="356" x1="1118" />
  <line class="link" y2="369" x2="1095" y1="356" x1="1118" />
  <line class="link" y2="369" x2="1095" y1="356" x1="1118" />
  <line class="link" y2="710" x2="746" y1="650" x1="767" />
  <line class="link" y2="763" x2="1356" y1="851" x1="1335" />
  <line class="link" y2="871" x2="1296" y1="851" x1="1335" />
  <line class="link" y2="763" x2="1356" y1="821" x1="1388" />
  <line class="link" y2="763" x2="1356" y1="818" x1="1297" />
  <line class="link" y2="871" x2="1296" y1="818" x1="1297" />
  <line class="link" y2="698" x2="774" y1="710" x1="746" />
  <line class="link" y2="709" x2="1421" y1="658" x1="1418" />
  <line class="link" y2="647" x2="657" y1="618" x1="659" />
  <line class="link" y2="625" x2="616" y1="618" x1="659" />
  <line class="link" y2="596" x2="518" y1="558" x1="558" />
  <line class="link" y2="541" x2="688" y1="558" x1="558" />
  <line class="link" y2="647" x2="657" y1="615" x1="704" />
  <line class="link" y2="541" x2="799" y1="615" x1="704" />
  <line class="link" y2="625" x2="616" y1="647" x1="657" />
  <line class="link" y2="679" x2="666" y1="647" x1="657" />
  <line class="link" y2="875" x2="985" y1="913" x1="1013" />
  <line class="link" y2="152" x2="1044" y1="178" x1="1048" />
  <line class="link" y2="420" x2="1233" y1="471" x1="1285" />
  <line class="link" y2="531" x2="1281" y1="471" x1="1285" />
  <line class="link" y2="631" x2="1123" y1="614" x1="1114" />
  <line class="link" y2="215" x2="1059" y1="178" x1="1048" />
  <line class="link" y2="571" x2="1158" y1="540" x1="1148" />
  <line class="link" y2="427" x2="899" y1="366" x1="913" />
  <line class="link" y2="667" x2="1144" y1="614" x1="1114" />
  <line class="link" y2="178" x2="1048" y1="215" x1="1059" />
  <line class="link" y2="338" x2="926" y1="307" x1="954" />
  <line class="link" y2="338" x2="926" y1="366" x1="913" />
  <line class="link" y2="631" x2="1123" y1="634" x1="1148" />
  <line class="link" y2="268" x2="1070" y1="215" x1="1059" />
  <line class="link" y2="733" x2="1016" y1="706" x1="976" />
  <line class="link" y2="369" x2="870" y1="366" x1="913" />
  <line class="link" y2="586" x2="1121" y1="634" x1="1148" />
  <line class="link" y2="268" x2="1070" y1="274" x1="1100" />
  <line class="link" y2="597" x2="919" y1="628" x1="1047" />
  <line class="link" y2="206" x2="886" y1="279" x1="893" />
  <line class="link" y2="356" x2="1118" y1="369" x1="1095" />
  <line class="link" y2="268" x2="1070" y1="274" x1="1100" />
  <line class="link" y2="642" x2="872" y1="603" x1="890" />
  <line class="link" y2="502" x2="1136" y1="540" x1="1148" />
  <line class="link" y2="265" x2="1044" y1="268" x1="1070" />
  <line class="link" y2="191" x2="1144" y1="212" x1="1193" />
  <line class="link" y2="597" x2="919" y1="436" x1="864" />
  <line class="link" y2="706" x2="976" y1="720" x1="956" />
  <line class="link" y2="369" x2="1095" y1="268" x1="1070" />
  <line class="link" y2="224" x2="1240" y1="212" x1="1193" />
  <line class="link" y2="398" x2="871" y1="436" x1="864" />
  <line class="link" y2="706" x2="976" y1="733" x1="1016" />
  <line class="link" y2="698" x2="774" y1="650" x1="767" />
  <line class="link" y2="421" x2="576" y1="420" x1="545" />
  <line class="link" y2="469" x2="768" y1="434" x1="730" />
  <line class="link" y2="597" x2="919" y1="706" x1="976" />
  <line class="link" y2="541" x2="799" y1="650" x1="767" />
  <line class="link" y2="398" x2="608" y1="420" x1="545" />
  <line class="link" y2="541" x2="799" y1="434" x1="730" />
  <line class="link" y2="680" x2="1190" y1="726" x1="1175" />
  <line class="link" y2="793" x2="1337" y1="770" x1="1320" />
  <line class="link" y2="402" x2="562" y1="420" x1="545" />
  <line class="link" y2="531" x2="1281" y1="498" x1="1356" />
  <line class="link" y2="369" x2="870" y1="436" x1="864" />
  <line class="link" y2="763" x2="1356" y1="770" x1="1320" />
  <line class="link" y2="445" x2="557" y1="420" x1="545" />
  <line class="link" y2="338" x2="926" y1="435" x1="942" />
  <line class="link" y2="427" x2="899" y1="642" x1="872" />
  <line class="link" y2="685" x2="1401" y1="658" x1="1418" />
  <line class="link" y2="445" x2="557" y1="476" x1="555" />
  <line class="link" y2="935" x2="1159" y1="992" x1="1155" />
  <line class="link" y2="597" x2="919" y1="683" x1="932" />
  <line class="link" y2="688" x2="1441" y1="709" x1="1421" />
  <line class="link" y2="398" x2="608" y1="476" x1="555" />
  <line class="link" y2="1031" x2="1143" y1="992" x1="1155" />
  <line class="link" y2="706" x2="976" y1="683" x1="932" />
  <line class="link" y2="697" x2="615" y1="618" x1="659" />
  <line class="link" y2="581" x2="601" y1="476" x1="555" />
  <line class="link" y2="980" x2="871" y1="875" x1="985" />
  <line class="link" y2="434" x2="730" y1="469" x1="768" />
  <line class="link" y2="615" x2="704" y1="618" x1="659" />
  <line class="link" y2="558" x2="558" y1="476" x1="555" />
  <line class="link" y2="571" x2="1158" y1="631" x1="1123" />
  <line class="link" y2="541" x2="799" y1="469" x1="768" />
  <line class="link" y2="697" x2="615" y1="647" x1="657" />
  <line class="link" y2="581" x2="601" y1="513" x1="594" />
  <line class="link" y2="540" x2="1148" y1="614" x1="1114" />
  <line class="link" y2="628" x2="1047" y1="614" x1="1114" />
  <line class="link" y2="615" x2="704" y1="647" x1="657" />
  <line class="link" y2="388" x2="639" y1="513" x1="594" />
  <line class="link" y2="586" x2="1121" y1="614" x1="1114" />
  <line class="link" y2="667" x2="1144" y1="614" x1="1114" />
  <line class="link" y2="388" x2="639" y1="339" x1="681" />
  <line class="link" y2="724" x2="577" y1="724" x1="520" />
  <line class="link" y2="667" x2="1144" y1="634" x1="1148" />
  <line class="link" y2="694" x2="1219" y1="634" x1="1148" />
  <line class="link" y2="293" x2="670" y1="339" x1="681" />
  <line class="link" y2="667" x2="513" y1="724" x1="520" />
  <line class="link" y2="628" x2="1047" y1="634" x1="1148" />
  <line class="link" y2="667" x2="1144" y1="634" x1="1148" />
  <line class="link" y2="270" x2="690" y1="339" x1="681" />
  <line class="link" y2="476" x2="555" y1="511" x1="531" />
  <line class="link" y2="586" x2="1121" y1="369" x1="1095" />
  <line class="link" y2="356" x2="1118" y1="344" x1="1146" />
  <line class="link" y2="355" x2="652" y1="339" x1="681" />
  <line class="link" y2="476" x2="555" y1="511" x1="531" />
  <line class="link" y2="215" x2="1059" y1="268" x1="1070" />
  <line class="link" y2="268" x2="1070" y1="369" x1="1095" />
  <line class="link" y2="388" x2="639" y1="322" x1="642" />
  <line class="link" y2="558" x2="558" y1="511" x1="531" />
  <line class="link" y2="268" x2="1070" y1="265" x1="1044" />
  <line class="link" y2="743" x2="824" y1="676" x1="806" />
  <line class="link" y2="380" x2="672" y1="355" x1="652" />
  <line class="link" y2="581" x2="601" y1="735" x1="630" />
  <line class="link" y2="698" x2="774" y1="676" x1="806" />
  <line class="link" y2="541" x2="799" y1="676" x1="806" />
  <line class="link" y2="322" x2="642" y1="355" x1="652" />
  <line class="link" y2="980" x2="871" y1="1027" x1="845" />
  <line class="link" y2="763" x2="1356" y1="776" x1="1406" />
  <line class="link" y2="531" x2="1281" y1="706" x1="1315" />
  <line class="link" y2="388" x2="639" y1="380" x1="672" />
  <line class="link" y2="621" x2="1273" y1="652" x1="1299" />
  <line class="link" y2="947" x2="1256" y1="897" x1="1272" />
  <line class="link" y2="818" x2="1297" y1="706" x1="1315" />
  <line class="link" y2="355" x2="652" y1="380" x1="672" />
  <line class="link" y2="1055" x2="886" y1="1084" x1="892" />
  <line class="link" y2="818" x2="1297" y1="897" x1="1272" />
  <line class="link" y2="763" x2="1356" y1="706" x1="1315" />
  <line class="link" y2="434" x2="730" y1="380" x1="672" />
  <line class="link" y2="1055" x2="886" y1="1084" x1="892" />
  <line class="link" y2="871" x2="1296" y1="897" x1="1272" />
  <line class="link" y2="763" x2="1356" y1="793" x1="1337" />
  <line class="link" y2="414" x2="1283" y1="406" x1="1329" />
  <line class="link" y2="980" x2="871" y1="1055" x1="886" />
  <line class="link" y2="763" x2="1356" y1="709" x1="1421" />
  <line class="link" y2="685" x2="1401" y1="688" x1="1441" />
  <line class="link" y2="420" x2="1233" y1="414" x1="1283" />
  <line class="link" y2="651" x2="992" y1="793" x1="994" />
  <line class="link" y2="658" x2="1418" y1="685" x1="1401" />
  <line class="link" y2="558" x2="558" y1="618" x1="659" />
  <line class="link" y2="420" x2="1233" y1="414" x1="1283" />
  <line class="link" y2="875" x2="985" y1="793" x1="994" />
  <line class="link" y2="763" x2="1356" y1="685" x1="1401" />
  <line class="link" y2="541" x2="799" y1="618" x1="659" />
  <line class="link" y2="420" x2="1233" y1="414" x1="1283" />
  <line class="link" y2="665" x2="966" y1="651" x1="992" />
  <line class="link" y2="709" x2="1421" y1="688" x1="1441" />
  <line class="link" y2="679" x2="666" y1="618" x1="659" />
  <line class="link" y2="415" x2="1202" y1="429" x1="1173" />
  <line class="link" y2="541" x2="799" y1="480" x1="830" />
  <line class="link" y2="697" x2="615" y1="776" x1="569" />
  <line class="link" y2="355" x2="652" y1="398" x1="608" />
  <line class="link" y2="463" x2="1064" y1="429" x1="1173" />
  <line class="link" y2="545" x2="926" y1="480" x1="830" />
  <line class="link" y2="558" x2="558" y1="625" x1="616" />
  <line class="link" y2="380" x2="672" y1="398" x1="608" />
  <line class="link" y2="429" x2="1173" y1="415" x1="1202" />
  <line class="link" y2="469" x2="768" y1="480" x1="830" />
  <line class="link" y2="434" x2="730" y1="398" x1="608" />
  <line class="link" y2="322" x2="642" y1="398" x1="608" />
  <line class="link" y2="926" x2="853" y1="888" x1="777" />
  <line class="link" y2="435" x2="942" y1="480" x1="830" />
  <line class="link" y2="388" x2="639" y1="398" x1="608" />
  <line class="link" y2="434" x2="730" y1="339" x1="681" />
  <line class="link" y2="427" x2="899" y1="323" x1="846" />
  <line class="link" y2="434" x2="730" y1="480" x1="830" />
  <line class="link" y2="322" x2="642" y1="270" x1="690" />
  <line class="link" y2="380" x2="672" y1="339" x1="681" />
  <line class="link" y2="545" x2="926" y1="665" x1="966" />
  <line class="link" y2="427" x2="899" y1="639" x1="900" />
  <line class="link" y2="293" x2="670" y1="270" x1="690" />
  <line class="link" y2="322" x2="642" y1="339" x1="681" />
  <line class="link" y2="875" x2="985" y1="665" x1="966" />
  <line class="link" y2="628" x2="1047" y1="639" x1="900" />
  <line class="link" y2="293" x2="670" y1="265" x1="638" />
  <line class="link" y2="388" x2="639" y1="293" x1="670" />
  <line class="link" y2="954" x2="792" y1="883" x1="830" />
  <line class="link" y2="642" x2="872" y1="639" x1="900" />
  <line class="link" y2="322" x2="642" y1="265" x1="638" />
  <line class="link" y2="270" x2="690" y1="293" x1="670" />
  <line class="link" y2="558" x2="558" y1="563" x1="517" />
  <line class="link" y2="270" x2="690" y1="204" x1="729" />
  <line class="link" y2="268" x2="1070" y1="192" x1="1093" />
  <line class="link" y2="291" x2="830" y1="369" x1="870" />
  <line class="link" y2="204" x2="729" y1="168" x1="758" />
  <line class="link" y2="152" x2="1044" y1="192" x1="1093" />
  <line class="link" y2="398" x2="871" y1="369" x1="870" />
  <line class="link" y2="191" x2="1144" y1="192" x1="1093" />
  <line class="link" y2="215" x2="1059" y1="192" x1="1093" />
  <line class="link" y2="427" x2="899" y1="369" x1="870" />
  <line class="link" y2="191" x2="1144" y1="192" x1="1093" />
  <line class="link" y2="178" x2="1048" y1="192" x1="1093" />
  <line class="link" y2="338" x2="926" y1="427" x1="899" />
  <line class="link" y2="192" x2="1093" y1="191" x1="1144" />
  <line class="link" y2="197" x2="1215" y1="212" x1="1193" />
  <line class="link" y2="639" x2="900" y1="792" x1="753" />
  <line class="link" y2="197" x2="1215" y1="191" x1="1144" />
  <line class="link" y2="240" x2="1210" y1="212" x1="1193" />
  <line class="link" y2="881" x2="658" y1="792" x1="753" />
  <line class="link" y2="240" x2="1210" y1="191" x1="1144" />
  <line class="link" y2="224" x2="1240" y1="197" x1="1215" />
  <line class="link" y2="831" x2="715" y1="792" x1="753" />
  <line class="link" y2="178" x2="1048" y1="152" x1="1044" />
  <line class="link" y2="224" x2="1240" y1="240" x1="1210" />
  <line class="link" y2="680" x2="1190" y1="667" x1="1144" />
  <line class="link" y2="224" x2="1240" y1="229" x1="1278" />
  <line class="link" y2="191" x2="1144" y1="142" x1="1134" />
  <line class="link" y2="667" x2="1144" y1="680" x1="1190" />
  <line class="link" y2="224" x2="1240" y1="271" x1="1302" />
  <line class="link" y2="240" x2="1210" y1="224" x1="1240" />
  <line class="link" y2="726" x2="1175" y1="680" x1="1190" />
  <line class="link" y2="240" x2="1210" y1="289" x1="1234" />
  <line class="link" y2="197" x2="1215" y1="224" x1="1240" />
  <line class="link" y2="476" x2="555" y1="420" x1="545" />
  <line class="link" y2="229" x2="1278" y1="224" x1="1240" />
  <line class="link" y2="513" x2="594" y1="476" x1="555" />
  <line class="link" y2="476" x2="555" y1="402" x1="562" />
  <line class="link" y2="402" x2="562" y1="421" x1="576" />
  <line class="link" y2="421" x2="576" y1="402" x1="562" />
  <line class="link" y2="398" x2="608" y1="421" x1="576" />
  <line class="link" y2="398" x2="608" y1="402" x1="562" />
  <line class="link" y2="486" x2="609" y1="421" x1="576" />
  <line class="link" y2="476" x2="555" y1="445" x1="557" />
  <line class="link" y2="421" x2="576" y1="445" x1="557" />
  <line class="link" y2="800" x2="655" y1="735" x1="630" />
  <line class="link" y2="398" x2="608" y1="445" x1="557" />
  <line class="link" y2="581" x2="601" y1="724" x1="577" />
  <line class="link" y2="541" x2="688" y1="581" x1="601" />
  <line class="link" y2="800" x2="655" y1="724" x1="577" />
  <line class="link" y2="558" x2="558" y1="596" x1="518" />
  <line class="link" y2="558" x2="558" y1="608" x1="560" />
  <line class="link" y2="558" x2="558" y1="486" x1="609" />
  <line class="link" y2="581" x2="601" y1="608" x1="560" />
  <line class="link" y2="581" x2="601" y1="486" x1="609" />
  <line class="link" y2="558" x2="558" y1="667" x1="513" />
  <line class="link" y2="388" x2="639" y1="486" x1="609" />
  <line class="link" y2="420" x2="1233" y1="374" x1="1282" />
  <line class="link" y2="558" x2="558" y1="513" x1="594" />
  <line class="link" y2="414" x2="1283" y1="406" x1="1329" />
  <line class="link" y2="800" x2="655" y1="888" x1="777" />
  <line class="link" y2="545" x2="926" y1="651" x1="992" />
  <line class="link" y2="928" x2="811" y1="888" x1="777" />
  <line class="link" y2="875" x2="985" y1="879" x1="1041" />
  <line class="link" y2="875" x2="985" y1="906" x1="964" />
  <line class="link" y2="553" x2="994" y1="591" x1="1014" />
  <line class="link" y2="875" x2="985" y1="967" x1="1014" />
  <line class="link" y2="651" x2="992" y1="591" x1="1014" />
  <line class="link" y2="967" x2="1014" y1="997" x1="1047" />
  <line class="link" y2="545" x2="926" y1="553" x1="994" />
  <line class="link" y2="951" x2="1048" y1="997" x1="1047" />
  <line class="link" y2="545" x2="926" y1="499" x1="1002" />
  <line class="link" y2="875" x2="985" y1="951" x1="1048" />
  <line class="link" y2="545" x2="926" y1="497" x1="963" />
  <line class="link" y2="980" x2="871" y1="1023" x1="804" />
  <line class="link" y2="291" x2="830" y1="323" x1="846" />
  <line class="link" y2="943" x2="750" y1="883" x1="830" />
  <line class="link" y2="527" x2="792" y1="540" x1="845" />
  <line class="link" y2="892" x2="753" y1="883" x1="830" />
  <line class="link" y2="545" x2="926" y1="540" x1="845" />
  <line class="link" y2="865" x2="877" y1="883" x1="830" />
  <line class="link" y2="541" x2="799" y1="545" x1="926" />
  <line class="link" y2="848" x2="821" y1="883" x1="830" />
  <line class="link" y2="665" x2="966" y1="545" x1="926" />
  <line class="link" y2="974" x2="915" y1="883" x1="830" />
  <line class="link" y2="463" x2="1064" y1="545" x1="926" />
  <line class="link" y2="980" x2="871" y1="883" x1="830" />
  <line class="link" y2="540" x2="845" y1="541" x1="799" />
  <line class="link" y2="642" x2="872" y1="883" x1="830" />
  <line class="link" y2="545" x2="926" y1="541" x1="799" />
  <line class="link" y2="558" x2="558" y1="563" x1="517" />
  <line class="link" y2="527" x2="792" y1="541" x1="799" />
  <line class="link" y2="733" x2="1016" y1="725" x1="1113" />
  <line class="link" y2="726" x2="1175" y1="725" x1="1113" />
  <line class="link" y2="680" x2="1190" y1="725" x1="1113" />
  <line class="link" y2="307" x2="954" y1="275" x1="955" />
  <line class="link" y2="338" x2="926" y1="275" x1="955" />
  <line class="link" y2="885" x2="1171" y1="841" x1="1163" />
  <line class="link" y2="667" x2="1144" y1="841" x1="1163" />
  <line class="link" y2="935" x2="1159" y1="841" x1="1163" />
  <circle style="fill: rgb(0, 139, 139);" class="node" cy="204" cx="729" r="8" />
  <circle style="fill: rgb(255, 140, 0);" class="node" cy="168" cx="758" r="8" />
  <circle style="fill: rgb(255, 250, 250);" class="node" cy="152" cx="1044" r="8" />
  <circle style="fill: rgb(255, 160, 122);" class="node" cy="215" cx="1059" r="10" />
  <circle style="fill: rgb(128, 128, 0);" class="node" cy="212" cx="1193" r="8" />
  <circle style="fill: rgb(245, 245, 220);" class="node" cy="142" cx="1134" r="8" />
  <circle style="fill: rgb(255, 0, 255);" class="node" cy="229" cx="1278" r="8" />
  <circle style="fill: rgb(169, 169, 169);" class="node" cy="271" cx="1302" r="8" />
  <circle style="fill: rgb(188, 143, 143);" class="node" cy="476" cx="555" r="20" />
  <circle style="fill: rgb(139, 0, 139);" class="node" cy="402" cx="562" r="10" />
  <circle style="fill: rgb(255, 127, 80);" class="node" cy="596" cx="518" r="8" />
  <circle style="fill: rgb(255, 99, 71);" class="node" cy="445" cx="557" r="10" />
  <circle style="fill: rgb(253, 245, 230);" class="node" cy="724" cx="520" r="8" />
  <circle style="fill: rgb(107, 142, 35);" class="node" cy="513" cx="594" r="8" />
  <circle style="fill: rgb(218, 112, 214);" class="node" cy="800" cx="655" r="8" />
  <circle style="fill: rgb(220, 20, 60);" class="node" cy="724" cx="577" r="8" />
  <circle style="fill: rgb(47, 79, 79);" class="node" cy="429" cx="1173" r="8" />
  <circle style="fill: rgb(250, 235, 215);" class="node" cy="926" cx="853" r="8" />
  <circle style="fill: rgb(244, 164, 96);" class="node" cy="415" cx="1202" r="8" />
  <circle style="fill: rgb(248, 248, 255);" class="node" cy="888" cx="777" r="8" />
  <circle style="fill: rgb(147, 112, 219);" class="node" cy="906" cx="964" r="8" />
  <circle style="fill: rgb(255, 0, 255);" class="node" cy="291" cx="830" r="8" />
  <circle style="fill: rgb(34, 139, 34);" class="node" cy="967" cx="1014" r="8" />
  <circle style="fill: rgb(250, 235, 215);" class="node" cy="369" cx="870" r="12" />
  <circle style="fill: rgb(75, 0, 130);" class="node" cy="545" cx="926" r="22" />
  <circle style="fill: rgb(184, 134, 11);" class="node" cy="480" cx="830" r="10" />
  <circle style="fill: rgb(244, 164, 96);" class="node" cy="192" cx="1093" r="14" />
  <circle style="fill: rgb(245, 222, 179);" class="node" cy="541" cx="799" r="24" />
  <circle style="fill: rgb(221, 160, 221);" class="node" cy="639" cx="900" r="8" />
  <circle style="fill: rgb(199, 21, 133);" class="node" cy="274" cx="1100" r="8" />
  <circle style="fill: rgb(160, 82, 45);" class="node" cy="667" cx="1144" r="18" />
  <circle style="fill: rgb(238, 130, 238);" class="node" cy="935" cx="1159" r="8" />
  <circle style="fill: rgb(152, 251, 152);" class="node" cy="240" cx="1210" r="10" />
  <circle style="fill: rgb(184, 134, 11);" class="node" cy="680" cx="1190" r="14" />
  <circle style="fill: rgb(205, 92, 92);" class="node" cy="1023" cx="804" r="8" />
  <circle style="fill: rgb(143, 188, 139);" class="node" cy="224" cx="1240" r="16" />
  <circle style="fill: rgb(205, 92, 92);" class="node" cy="471" cx="1285" r="8" />
  <circle style="fill: rgb(147, 112, 219);" class="node" cy="531" cx="1281" r="8" />
  <circle style="fill: rgb(255, 255, 224);" class="node" cy="420" cx="545" r="10" />
  <circle style="fill: rgb(72, 61, 139);" class="node" cy="420" cx="1233" r="16" />
  <circle style="fill: rgb(218, 112, 214);" class="node" cy="577" cx="1308" r="8" />
  <circle style="fill: rgb(32, 178, 170);" class="node" cy="581" cx="601" r="14" />
  <circle style="fill: rgb(152, 251, 152);" class="node" cy="398" cx="871" r="12" />
  <circle style="fill: rgb(255, 255, 255);" class="node" cy="366" cx="913" r="8" />
  <circle style="fill: rgb(255, 215, 0);" class="node" cy="735" cx="630" r="8" />
  <circle style="fill: rgb(25, 25, 112);" class="node" cy="206" cx="886" r="8" />
  <circle style="fill: rgb(72, 61, 139);" class="node" cy="279" cx="893" r="8" />
  <circle style="fill: rgb(0, 0, 128);" class="node" cy="608" cx="560" r="8" />
  <circle style="fill: rgb(221, 160, 221);" class="node" cy="494" cx="887" r="8" />
  <circle style="fill: rgb(205, 133, 63);" class="node" cy="652" cx="1299" r="8" />
  <circle style="fill: rgb(250, 235, 215);" class="node" cy="406" cx="1329" r="8" />
  <circle style="fill: rgb(255, 127, 80);" class="node" cy="541" cx="688" r="8" />
  <circle style="fill: rgb(152, 251, 152);" class="node" cy="463" cx="1064" r="8" />
  <circle style="fill: rgb(135, 206, 250);" class="node" cy="414" cx="1283" r="10" />
  <circle style="fill: rgb(139, 0, 0);" class="node" cy="1031" cx="1143" r="8" />
  <circle style="fill: rgb(255, 235, 205);" class="node" cy="628" cx="1047" r="10" />
  <circle style="fill: rgb(60, 179, 113);" class="node" cy="997" cx="1047" r="8" />
  <circle style="fill: rgb(255, 250, 250);" class="node" cy="603" cx="890" r="8" />
  <circle style="fill: rgb(25, 25, 112);" class="node" cy="597" cx="919" r="18" />
  <circle style="fill: rgb(255, 105, 180);" class="node" cy="951" cx="1048" r="8" />
  <circle style="fill: rgb(135, 206, 235);" class="node" cy="931" cx="641" r="8" />
  <circle style="fill: rgb(46, 139, 87);" class="node" cy="881" cx="658" r="8" />
  <circle style="fill: rgb(50, 205, 50);" class="node" cy="427" cx="899" r="14" />
  <circle style="fill: rgb(255, 165, 0);" class="node" cy="793" cx="994" r="8" />
  <circle style="fill: rgb(30, 144, 255);" class="node" cy="879" cx="1041" r="8" />
  <circle style="fill: rgb(255, 228, 181);" class="node" cy="792" cx="753" r="8" />
  <circle style="fill: rgb(124, 252, 0);" class="node" cy="651" cx="992" r="8" />
  <circle style="fill: rgb(255, 99, 71);" class="node" cy="683" cx="932" r="8" />
  <circle style="fill: rgb(255, 127, 80);" class="node" cy="841" cx="1163" r="8" />
  <circle style="fill: rgb(65, 105, 225);" class="node" cy="895" cx="608" r="8" />
  <circle style="fill: rgb(165, 42, 42);" class="node" cy="469" cx="768" r="8" />
  <circle style="fill: rgb(85, 107, 47);" class="node" cy="885" cx="1171" r="8" />
  <circle style="fill: rgb(253, 245, 230);" class="node" cy="913" cx="1013" r="8" />
  <circle style="fill: rgb(128, 0, 128);" class="node" cy="499" cx="1002" r="8" />
  <circle style="fill: rgb(50, 205, 50);" class="node" cy="974" cx="915" r="8" />
  <circle style="fill: rgb(32, 178, 170);" class="node" cy="875" cx="985" r="16" />
  <circle style="fill: rgb(255, 0, 255);" class="node" cy="497" cx="963" r="8" />
  <circle style="fill: rgb(64, 224, 208);" class="node" cy="1027" cx="845" r="8" />
  <circle style="fill: rgb(255, 0, 0);" class="node" cy="631" cx="1123" r="14" />
  <circle style="fill: rgb(255, 215, 0);" class="node" cy="928" cx="811" r="8" />
  <circle style="fill: rgb(250, 235, 215);" class="node" cy="242" cx="903" r="8" />
  <circle style="fill: rgb(72, 61, 139);" class="node" cy="586" cx="1121" r="10" />
  <circle style="fill: rgb(255, 228, 225);" class="node" cy="323" cx="846" r="8" />
  <circle style="fill: rgb(143, 188, 139);" class="node" cy="338" cx="926" r="20" />
  <circle style="fill: rgb(255, 218, 185);" class="node" cy="676" cx="806" r="8" />
  <circle style="fill: rgb(0, 206, 209);" class="node" cy="344" cx="1146" r="8" />
  <circle style="fill: rgb(184, 134, 11);" class="node" cy="571" cx="1158" r="8" />
  <circle style="fill: rgb(143, 188, 139);" class="node" cy="650" cx="767" r="8" />
  <circle style="fill: rgb(255, 160, 122);" class="node" cy="369" cx="1095" r="12" />
  <circle style="fill: rgb(160, 82, 45);" class="node" cy="502" cx="1136" r="8" />
  <circle style="fill: rgb(139, 0, 139);" class="node" cy="851" cx="1335" r="8" />
  <circle style="fill: rgb(75, 0, 130);" class="node" cy="268" cx="1070" r="18" />
  <circle style="fill: rgb(0, 128, 0);" class="node" cy="720" cx="956" r="8" />
  <circle style="fill: rgb(255, 0, 0);" class="node" cy="883" cx="830" r="16" />
  <circle style="fill: rgb(188, 143, 143);" class="node" cy="601" cx="1353" r="8" />
  <circle style="fill: rgb(0, 0, 139);" class="node" cy="733" cx="1016" r="8" />
  <circle style="fill: rgb(250, 128, 114);" class="node" cy="793" cx="1337" r="8" />
  <circle style="fill: rgb(0, 139, 139);" class="node" cy="897" cx="1272" r="8" />
  <circle style="fill: rgb(192, 192, 192);" class="node" cy="1055" cx="886" r="8" />
  <circle style="fill: rgb(0, 255, 0);" class="node" cy="563" cx="517" r="8" />
  <circle style="fill: rgb(255, 192, 203);" class="node" cy="848" cx="821" r="8" />
  <circle style="fill: rgb(255, 160, 122);" class="node" cy="436" cx="864" r="8" />
  <circle style="fill: rgb(139, 0, 0);" class="node" cy="770" cx="1320" r="8" />
  <circle style="fill: rgb(0, 0, 128);" class="node" cy="947" cx="1256" r="8" />
  <circle style="fill: rgb(255, 192, 203);" class="node" cy="642" cx="872" r="12" />
  <circle style="fill: rgb(176, 224, 230);" class="node" cy="818" cx="1297" r="8" />
  <circle style="fill: rgb(112, 128, 144);" class="node" cy="706" cx="1315" r="8" />
  <circle style="fill: rgb(245, 245, 220);" class="node" cy="386" cx="828" r="8" />
  <circle style="fill: rgb(211, 211, 211);" class="node" cy="679" cx="666" r="8" />
  <circle style="fill: rgb(105, 105, 105);" class="node" cy="776" cx="569" r="8" />
  <circle style="fill: rgb(255, 255, 0);" class="node" cy="806" cx="1121" r="8" />
  <circle style="fill: rgb(255, 127, 80);" class="node" cy="697" cx="615" r="8" />
  <circle style="fill: rgb(153, 50, 204);" class="node" cy="625" cx="616" r="8" />
  <circle style="fill: rgb(138, 43, 226);" class="node" cy="553" cx="994" r="8" />
  <circle style="fill: rgb(255, 105, 180);" class="node" cy="615" cx="704" r="8" />
  <circle style="fill: rgb(255, 192, 203);" class="node" cy="582" cx="1260" r="8" />
  <circle style="fill: rgb(250, 235, 215);" class="node" cy="746" cx="1128" r="8" />
  <circle style="fill: rgb(144, 238, 144);" class="node" cy="647" cx="657" r="12" />
  <circle style="fill: rgb(240, 128, 128);" class="node" cy="398" cx="608" r="20" />
  <circle style="fill: rgb(218, 165, 32);" class="node" cy="992" cx="1155" r="8" />
  <circle style="fill: rgb(0, 139, 139);" class="node" cy="265" cx="1044" r="8" />
  <circle style="fill: rgb(0, 255, 127);" class="node" cy="831" cx="715" r="8" />
  <circle style="fill: rgb(178, 34, 34);" class="node" cy="665" cx="966" r="8" />
  <circle style="fill: rgb(176, 196, 222);" class="node" cy="698" cx="774" r="8" />
  <circle style="fill: rgb(128, 128, 0);" class="node" cy="821" cx="1388" r="8" />
  <circle style="fill: rgb(255, 250, 205);" class="node" cy="892" cx="753" r="8" />
  <circle style="fill: rgb(238, 232, 170);" class="node" cy="776" cx="1406" r="8" />
  <circle style="fill: rgb(255, 255, 255);" class="node" cy="865" cx="877" r="8" />
  <circle style="fill: rgb(255, 250, 240);" class="node" cy="685" cx="1401" r="8" />
  <circle style="fill: rgb(245, 255, 250);" class="node" cy="688" cx="1441" r="8" />
  <circle style="fill: rgb(50, 205, 50);" class="node" cy="618" cx="659" r="14" />
  <circle style="fill: rgb(0, 0, 205);" class="node" cy="558" cx="558" r="26" />
  <circle style="fill: rgb(160, 82, 45);" class="node" cy="265" cx="638" r="8" />
  <circle style="fill: rgb(255, 250, 205);" class="node" cy="322" cx="642" r="12" />
  <circle style="fill: rgb(0, 191, 255);" class="node" cy="355" cx="652" r="10" />
  <circle style="fill: rgb(205, 133, 63);" class="node" cy="380" cx="672" r="12" />
  <circle style="fill: rgb(255, 160, 122);" class="node" cy="191" cx="1144" r="14" />
  <circle style="fill: rgb(0, 255, 0);" class="node" cy="178" cx="1048" r="10" />
  <circle style="fill: rgb(218, 165, 32);" class="node" cy="197" cx="1215" r="8" />
  <circle style="fill: rgb(255, 160, 122);" class="node" cy="289" cx="1234" r="8" />
  <circle style="fill: rgb(255, 255, 255);" class="node" cy="421" cx="576" r="12" />
  <circle style="fill: rgb(255, 235, 205);" class="node" cy="486" cx="609" r="8" />
  <circle style="fill: rgb(123, 104, 238);" class="node" cy="511" cx="531" r="8" />
  <circle style="fill: rgb(240, 255, 240);" class="node" cy="667" cx="513" r="8" />
  <circle style="fill: rgb(238, 130, 238);" class="node" cy="374" cx="1282" r="8" />
  <circle style="fill: rgb(255, 239, 213);" class="node" cy="540" cx="845" r="8" />
  <circle style="fill: rgb(148, 0, 211);" class="node" cy="527" cx="792" r="8" />
  <circle style="fill: rgb(0, 255, 255);" class="node" cy="725" cx="1113" r="8" />
  <circle style="fill: rgb(240, 255, 255);" class="node" cy="275" cx="955" r="8" />
  <circle style="fill: rgb(135, 206, 250);" class="node" cy="1028" cx="954" r="8" />
  <circle style="fill: rgb(128, 128, 128);" class="node" cy="980" cx="871" r="10" />
  <circle style="fill: rgb(255, 0, 0);" class="node" cy="621" cx="1273" r="14" />
  <circle style="fill: rgb(245, 245, 245);" class="node" cy="588" cx="1331" r="8" />
  <circle style="fill: rgb(0, 100, 0);" class="node" cy="540" cx="1148" r="8" />
  <circle style="fill: rgb(248, 248, 255);" class="node" cy="307" cx="954" r="8" />
  <circle style="fill: rgb(250, 240, 230);" class="node" cy="706" cx="976" r="10" />
  <circle style="fill: rgb(0, 0, 255);" class="node" cy="726" cx="1175" r="8" />
  <circle style="fill: rgb(85, 107, 47);" class="node" cy="1084" cx="892" r="8" />
  <circle style="fill: rgb(128, 0, 0);" class="node" cy="618" cx="857" r="8" />
  <circle style="fill: rgb(233, 150, 122);" class="node" cy="434" cx="730" r="14" />
  <circle style="fill: rgb(0, 100, 0);" class="node" cy="498" cx="1356" r="8" />
  <circle style="fill: rgb(255, 20, 147);" class="node" cy="435" cx="942" r="10" />
  <circle style="fill: rgb(0, 255, 255);" class="node" cy="591" cx="1014" r="8" />
  <circle style="fill: rgb(255, 215, 0);" class="node" cy="614" cx="1114" r="12" />
  <circle style="fill: rgb(255, 250, 250);" class="node" cy="634" cx="1148" r="14" />
  <circle style="fill: rgb(255, 228, 225);" class="node" cy="694" cx="1219" r="8" />
  <circle style="fill: rgb(176, 196, 222);" class="node" cy="356" cx="1118" r="10" />
  <circle style="fill: rgb(255, 228, 181);" class="node" cy="763" cx="1356" r="18" />
  <circle style="fill: rgb(240, 128, 128);" class="node" cy="954" cx="792" r="8" />
  <circle style="fill: rgb(64, 224, 208);" class="node" cy="871" cx="1296" r="8" />
  <circle style="fill: rgb(250, 250, 210);" class="node" cy="943" cx="750" r="8" />
  <circle style="fill: rgb(30, 144, 255);" class="node" cy="743" cx="824" r="8" />
  <circle style="fill: rgb(238, 232, 170);" class="node" cy="710" cx="746" r="8" />
  <circle style="fill: rgb(240, 248, 255);" class="node" cy="658" cx="1418" r="8" />
  <circle style="fill: rgb(95, 158, 160);" class="node" cy="709" cx="1421" r="8" />
  <circle style="fill: rgb(255, 0, 255);" class="node" cy="388" cx="639" r="14" />
  <circle style="fill: rgb(255, 239, 213);" class="node" cy="339" cx="681" r="14" />
  <circle style="fill: rgb(192, 192, 192);" class="node" cy="293" cx="670" r="10" />
  <circle style="fill: rgb(245, 245, 220);" class="node" cy="270" cx="690" r="10" />
  <defs>
    <style type="text/css">.node {
    opacity: 0.85;
    stroke: #FFF;
    strokeOpacity: 0.8;
    strokeWidth: 0.5px;

}
.link {
    stroke: #CCC;
    strokeOpacity: 0.85;
    strokeWidth: 6;

}
</style>
  </defs>
</svg>