<svg xmlns="http://www.w3.org/2000/svg" width="480pt" height="290pt" viewBox="0 0 480 290" version="1.1" xmlns:xlink="http://www.w3.org/1999/xlink">
  <g id="surface2" transform="matrix(1.3260412313716876,0,0,1.3260412313716876,-230.24989552920516,5.721918094202938)">
    <path style="stroke:none;fill-rule:evenodd;fill:rgb(90.196078%,90.588235%,90.980392%);fill-opacity:1" d="M 300.000000 142.000000 C 299.933594 142.867188 298.367188 143.683594 295.300781 144.449219 C 292.199219 145.214844 287.917969 145.882812 282.449219 146.449219 C 276.949219 147.050781 270.582031 147.500000 263.351562 147.800781 C 256.117188 148.132812 248.332031 148.300781 240.000000 148.300781 C 231.667969 148.300781 223.882812 148.132812 216.648438 147.800781 C 209.417969 147.500000 203.050781 147.050781 197.550781 146.449219 C 192.082031 145.882812 187.800781 145.214844 184.699219 144.449219 C 181.632812 143.683594 180.066406 142.867188 180.000000 142.000000 C 180.066406 141.101562 181.632812 140.285156 184.699219 139.550781 C 187.800781 138.785156 192.082031 138.101562 197.550781 137.500000 C 203.050781 136.933594 209.417969 136.484375 216.648438 136.148438 C 223.882812 135.816406 231.667969 135.648438 240.000000 135.648438 C 248.332031 135.648438 256.117188 135.816406 263.351562 136.148438 C 270.582031 136.484375 276.949219 136.933594 282.449219 137.500000 C 287.917969 138.066406 292.199219 138.734375 295.300781 139.500000 C 298.367188 140.265625 299.933594 141.101562 300.000000 142.000000 "/>
    <path style="stroke:none;fill-rule:evenodd;fill:rgb(0.000000%,67.450980%,86.666667%);fill-opacity:1" d="M 251.199219 64.050781 C 252.398438 64.050781 253.648438 64.351562 254.949219 64.949219 C 256.683594 65.785156 257.964844 67.117188 258.800781 68.949219 L 260.449219 72.648438 C 260.949219 73.750000 261.714844 74.785156 262.750000 75.750000 C 263.750000 76.714844 264.933594 77.535156 266.300781 78.199219 C 268.035156 79.035156 269.734375 79.449219 271.398438 79.449219 C 272.300781 79.449219 273.183594 79.332031 274.050781 79.101562 L 278.050781 78.101562 C 278.648438 77.933594 279.265625 77.851562 279.898438 77.851562 C 281.167969 77.851562 282.500000 78.183594 283.898438 78.851562 C 285.964844 79.816406 287.464844 81.199219 288.398438 83.000000 L 290.500000 86.949219 C 291.535156 88.851562 291.734375 90.734375 291.101562 92.601562 C 290.433594 94.535156 289.148438 95.785156 287.250000 96.351562 L 283.050781 97.648438 C 280.417969 98.484375 278.617188 100.199219 277.648438 102.800781 C 276.515625 105.734375 276.617188 108.699219 277.949219 111.699219 L 280.199219 116.699219 C 281.199219 118.933594 281.417969 121.316406 280.851562 123.851562 C 279.851562 126.050781 278.285156 127.750000 276.148438 128.949219 L 271.250000 130.851562 C 270.148438 131.117188 269.082031 131.250000 268.050781 131.250000 C 266.550781 131.250000 265.050781 130.949219 263.550781 130.351562 C 261.148438 128.816406 259.500000 126.832031 258.601562 124.398438 L 256.601562 119.000000 C 255.632812 116.367188 255.617188 114.000000 256.550781 111.898438 C 257.617188 109.566406 259.367188 108.035156 261.800781 107.300781 L 266.500000 105.800781 C 269.367188 104.898438 271.332031 103.117188 272.398438 100.449219 C 273.398438 97.851562 273.265625 95.132812 272.000000 92.300781 L 270.050781 88.101562 C 268.816406 85.367188 266.867188 83.367188 264.199219 82.101562 C 262.433594 81.265625 260.683594 80.851562 258.949219 80.851562 C 258.050781 80.816406 257.132812 80.933594 256.199219 81.199219 L 251.750000 82.300781 C 250.917969 82.500000 250.101562 82.601562 249.300781 82.601562 C 247.898438 82.601562 246.500000 82.250000 245.101562 81.550781 C 243.199219 80.648438 241.867188 79.183594 241.101562 77.148438 L 239.648438 73.199219 C 238.949219 71.265625 239.066406 69.566406 240.000000 68.101562 C 240.933594 66.632812 242.265625 65.734375 244.000000 65.398438 C 244.300781 65.332031 244.582031 65.285156 244.851562 65.250000 L 249.148438 64.398438 C 249.449219 64.300781 249.699219 64.234375 249.898438 64.199219 C 250.332031 64.101562 250.765625 64.050781 251.199219 64.050781 "/>
    <path style="stroke:none;fill-rule:evenodd;fill:rgb(0.000000%,25.490196%,40.000000%);fill-opacity:1" d="M 229.250000 69.148438 C 230.515625 69.148438 231.800781 69.464844 233.101562 70.101562 C 234.933594 70.964844 236.199219 72.382812 236.898438 74.351562 L 238.300781 78.300781 C 239.300781 80.964844 241.148438 82.984375 243.851562 84.351562 C 245.582031 85.214844 247.351562 85.648438 249.148438 85.648438 C 250.214844 85.617188 251.316406 85.464844 252.449219 85.199219 L 256.898438 84.050781 C 257.601562 83.882812 258.300781 83.800781 259.000000 83.800781 C 260.367188 83.765625 261.750000 84.101562 263.148438 84.800781 C 265.316406 85.832031 266.832031 87.332031 267.699219 89.300781 L 269.601562 93.550781 C 270.535156 95.582031 270.566406 97.617188 269.699219 99.648438 C 268.800781 101.750000 267.285156 103.132812 265.148438 103.800781 L 260.449219 105.250000 C 257.285156 106.183594 255.035156 108.101562 253.699219 111.000000 C 253.000000 112.500000 252.632812 114.035156 252.601562 115.601562 C 252.566406 117.199219 252.867188 118.882812 253.500000 120.648438 L 255.449219 126.101562 C 256.316406 128.535156 256.316406 131.148438 255.449219 133.949219 C 253.816406 136.550781 251.816406 138.500000 249.449219 139.800781 L 243.851562 141.949219 C 242.785156 142.214844 241.714844 142.351562 240.648438 142.351562 C 238.949219 142.351562 237.300781 142.015625 235.699219 141.351562 C 233.035156 139.984375 231.316406 137.867188 230.550781 135.000000 L 228.949219 129.050781 C 228.117188 126.050781 228.449219 123.417969 229.949219 121.148438 C 231.382812 118.550781 233.367188 116.867188 235.898438 116.101562 L 241.199219 114.398438 C 244.667969 113.300781 247.101562 111.300781 248.500000 108.398438 C 249.234375 106.898438 249.667969 105.382812 249.800781 103.851562 C 249.898438 102.285156 249.699219 100.800781 249.199219 99.398438 L 247.500000 94.851562 C 246.500000 92.117188 244.484375 90.000000 241.449219 88.500000 C 239.683594 87.632812 237.867188 87.199219 236.000000 87.199219 C 234.867188 87.199219 233.699219 87.351562 232.500000 87.648438 L 227.500000 88.898438 C 226.699219 89.101562 225.898438 89.199219 225.101562 89.199219 C 223.601562 89.199219 222.101562 88.832031 220.601562 88.101562 C 218.433594 87.234375 217.050781 85.667969 216.449219 83.398438 L 215.250000 79.148438 C 214.683594 76.984375 215.082031 75.148438 216.449219 73.648438 C 217.683594 72.015625 219.183594 71.035156 220.949219 70.699219 C 221.250000 70.632812 221.535156 70.582031 221.800781 70.550781 L 226.601562 69.550781 C 226.933594 69.449219 227.250000 69.382812 227.550781 69.351562 C 228.117188 69.214844 228.683594 69.148438 229.250000 69.148438 "/>
    <path style="stroke:none;fill-rule:evenodd;fill:rgb(58.823529%,73.725490%,20.000000%);fill-opacity:1" d="M 222.449219 51.101562 C 223.785156 51.101562 225.250000 51.351562 226.851562 51.851562 C 228.714844 53.082031 229.882812 54.398438 230.351562 55.800781 L 231.601562 59.250000 C 232.167969 60.816406 232.000000 62.417969 231.101562 64.050781 C 229.699219 65.683594 227.964844 66.699219 225.898438 67.101562 L 221.250000 68.050781 C 218.117188 68.683594 215.699219 70.082031 214.000000 72.250000 C 212.265625 74.449219 211.765625 76.933594 212.500000 79.699219 L 213.648438 84.000000 C 214.351562 86.699219 216.117188 88.765625 218.949219 90.199219 C 220.816406 91.101562 222.917969 91.550781 225.250000 91.550781 C 226.250000 91.550781 227.265625 91.484375 228.300781 91.351562 L 233.351562 90.050781 C 233.714844 89.917969 234.035156 89.816406 234.300781 89.750000 C 234.898438 89.582031 235.515625 89.500000 236.148438 89.500000 C 237.417969 89.500000 238.832031 89.816406 240.398438 90.449219 C 242.433594 91.683594 243.816406 93.316406 244.550781 95.351562 L 246.199219 99.949219 C 247.066406 102.351562 247.000000 104.535156 246.000000 106.500000 C 244.535156 108.898438 242.617188 110.464844 240.250000 111.199219 L 235.000000 112.800781 C 234.000000 113.132812 233.035156 113.285156 232.101562 113.250000 C 230.566406 113.285156 229.050781 112.898438 227.550781 112.101562 C 225.449219 110.765625 223.882812 108.933594 222.851562 106.601562 L 221.550781 101.699219 C 220.714844 98.699219 218.851562 96.484375 215.949219 95.050781 C 213.882812 93.984375 211.785156 93.449219 209.648438 93.449219 C 208.515625 93.449219 207.351562 93.601562 206.148438 93.898438 L 200.601562 95.300781 C 199.601562 95.535156 198.601562 95.648438 197.601562 95.648438 C 196.101562 95.648438 194.617188 95.367188 193.148438 94.800781 C 191.015625 93.433594 189.765625 91.699219 189.398438 89.601562 L 188.601562 85.000000 C 188.234375 82.734375 188.785156 80.750000 190.250000 79.050781 C 191.882812 77.117188 193.949219 75.898438 196.449219 75.398438 L 201.699219 74.351562 C 205.101562 73.648438 207.667969 72.199219 209.398438 70.000000 C 211.101562 67.832031 211.617188 65.535156 210.949219 63.101562 L 209.949219 59.398438 C 209.515625 57.800781 209.933594 56.148438 211.199219 54.449219 C 212.566406 53.117188 214.265625 52.285156 216.300781 51.949219 L 220.699219 51.250000 C 221.265625 51.148438 221.851562 51.101562 222.449219 51.101562 "/>
  </g>
  <g id="surface4">
    <text style="fill:rgb(0,65,102)" font-family="Helvetica" font-size="50" transform="matrix(1,0,0,1,158,164.9)" xml:space="preserve"><![CDATA[sci]]></text>
    <text style="fill:rgb(0,65,102)" font-family="Helvetica" font-size="25" transform="matrix(1,0,0,1,177.75,197.45)" xml:space="preserve"><![CDATA[http://sciBASIC.NET]]></text>
    <text style="fill:rgb(0,172,221)" font-family="Helvetica" font-size="70" transform="matrix(1,0,0,1,219,166)" xml:space="preserve"><![CDATA[BASIC#]]></text>
  </g>
</svg>