<?xml version="1.0" encoding="utf-8"?>
<!-- Generator: Adobe Illustrator 19.0.0, SVG Export Plug-In . SVG Version: 6.00 Build 0)  -->
<svg version="1.1" id="图层_1" xmlns="http://www.w3.org/2000/svg" xmlns:xlink="http://www.w3.org/1999/xlink" x="0px" y="0px"
	 viewBox="-61 321 468 138" style="enable-background:new -61 321 468 138;" xml:space="preserve">
<style type="text/css">
	.st0{fill:#E6E7E8;}
	.st1{fill:#00ACDD;}
	.st2{fill:#004166;}
	.st3{fill:#96BC33;}
	.st4{font-family:'ArialMT';}
	.st5{font-size:50px;}
	.st6{font-size:25px;}
	.st7{font-size:70px;}
</style>
<g id="surface2" transform="matrix(1.3260412313716876,0,0,1.3260412313716876,-230.24989552920516,5.721918094202938)">
	<path class="st0" d="M251,332c-0.1,0.9-1.6,1.7-4.7,2.4c-3.1,0.8-7.4,1.4-12.9,2c-5.5,0.6-11.9,1.1-19.1,1.4
		c-7.2,0.3-15,0.5-23.4,0.5s-16.1-0.2-23.4-0.5c-7.2-0.3-13.6-0.8-19.1-1.4c-5.5-0.6-9.8-1.2-12.9-2c-3.1-0.8-4.6-1.6-4.7-2.4
		c0.1-0.9,1.6-1.7,4.7-2.4c3.1-0.8,7.4-1.4,12.9-2.1c5.5-0.6,11.9-1,19.1-1.4c7.2-0.3,15-0.5,23.4-0.5s16.1,0.2,23.4,0.5
		c7.2,0.3,13.6,0.8,19.1,1.4c5.5,0.6,9.8,1.2,12.9,2C249.3,330.3,250.9,331.1,251,332"/>
	<path class="st1" d="M202.2,254.1c1.2,0,2.4,0.3,3.8,0.9c1.7,0.8,3,2.2,3.9,4l1.6,3.7c0.5,1.1,1.3,2.1,2.3,3.1c1,1,2.2,1.8,3.6,2.4
		c1.7,0.8,3.4,1.3,5.1,1.3c0.9,0,1.8-0.1,2.7-0.3l4-1c0.6-0.2,1.2-0.3,1.8-0.3c1.3,0,2.6,0.3,4,1c2.1,1,3.6,2.3,4.5,4.1l2.1,3.9
		c1,1.9,1.2,3.8,0.6,5.7c-0.7,1.9-2,3.2-3.9,3.8l-4.2,1.3c-2.6,0.8-4.4,2.6-5.4,5.2c-1.1,2.9-1,5.9,0.3,8.9l2.3,5
		c1,2.2,1.2,4.6,0.7,7.2c-1,2.2-2.6,3.9-4.7,5.1l-4.9,1.9c-1.1,0.3-2.2,0.4-3.2,0.4c-1.5,0-3-0.3-4.5-0.9c-2.4-1.5-4.1-3.5-4.9-6
		l-2-5.4c-1-2.6-1-5-0.1-7.1c1.1-2.3,2.8-3.9,5.3-4.6l4.7-1.5c2.9-0.9,4.8-2.7,5.9-5.4c1-2.6,0.9-5.3-0.4-8.1l-1.9-4.2
		c-1.2-2.7-3.2-4.7-5.9-6c-1.8-0.8-3.5-1.3-5.3-1.3c-0.9,0-1.8,0.1-2.8,0.3l-4.4,1.1c-0.8,0.2-1.6,0.3-2.4,0.3
		c-1.4,0-2.8-0.4-4.2-1.1c-1.9-0.9-3.2-2.4-4-4.4l-1.5-3.9c-0.7-1.9-0.6-3.6,0.4-5.1c0.9-1.5,2.3-2.4,4-2.7c0.3-0.1,0.6-0.1,0.9-0.1
		l4.3-0.9c0.3-0.1,0.6-0.2,0.8-0.2C201.3,254.1,201.7,254.1,202.2,254.1"/>
	<path class="st2" d="M180.2,259.2c1.3,0,2.6,0.3,3.9,1c1.8,0.9,3.1,2.3,3.8,4.3l1.4,3.9c1,2.7,2.8,4.7,5.6,6.1
		c1.7,0.9,3.5,1.3,5.3,1.3c1.1,0,2.2-0.2,3.3-0.4l4.4-1.1c0.7-0.2,1.4-0.3,2.1-0.3c1.4,0,2.8,0.3,4.1,1c2.2,1,3.7,2.5,4.6,4.5
		l1.9,4.3c0.9,2,1,4.1,0.1,6.1c-0.9,2.1-2.4,3.5-4.6,4.2l-4.7,1.4c-3.2,0.9-5.4,2.9-6.8,5.8c-0.7,1.5-1.1,3-1.1,4.6
		c0,1.6,0.3,3.3,0.9,5l1.9,5.5c0.9,2.4,0.9,5,0,7.8c-1.6,2.6-3.6,4.6-6,5.9l-5.6,2.1c-1.1,0.3-2.1,0.4-3.2,0.4c-1.7,0-3.3-0.3-4.9-1
		c-2.7-1.4-4.4-3.5-5.1-6.4l-1.6-5.9c-0.8-3-0.5-5.6,1-7.9c1.4-2.6,3.4-4.3,5.9-5l5.3-1.7c3.5-1.1,5.9-3.1,7.3-6
		c0.7-1.5,1.2-3,1.3-4.5c0.1-1.6-0.1-3.1-0.6-4.5l-1.7-4.5c-1-2.7-3-4.9-6.1-6.4c-1.8-0.9-3.6-1.3-5.4-1.3c-1.1,0-2.3,0.2-3.5,0.4
		l-5,1.3c-0.8,0.2-1.6,0.3-2.4,0.3c-1.5,0-3-0.4-4.5-1.1c-2.2-0.9-3.6-2.4-4.2-4.7l-1.2-4.3c-0.6-2.2-0.2-4,1.2-5.5
		c1.2-1.6,2.7-2.6,4.5-2.9c0.3-0.1,0.6-0.1,0.9-0.1l4.8-1c0.3-0.1,0.6-0.2,0.9-0.2C179.1,259.3,179.7,259.2,180.2,259.2"/>
	<path class="st3" d="M173.4,241.1c1.3,0,2.8,0.3,4.4,0.8c1.9,1.2,3,2.5,3.5,3.9l1.3,3.4c0.6,1.6,0.4,3.2-0.5,4.8
		c-1.4,1.6-3.1,2.6-5.2,3.1l-4.6,0.9c-3.1,0.6-5.6,2-7.3,4.2c-1.7,2.2-2.2,4.7-1.5,7.4l1.1,4.3c0.7,2.7,2.5,4.8,5.3,6.2
		c1.9,0.9,4,1.4,6.3,1.4c1,0,2-0.1,3.1-0.2l5.1-1.3c0.4-0.1,0.7-0.2,0.9-0.3c0.6-0.2,1.2-0.3,1.8-0.3c1.3,0,2.7,0.3,4.3,0.9
		c2,1.2,3.4,2.9,4.2,4.9l1.6,4.6c0.9,2.4,0.8,4.6-0.2,6.6c-1.5,2.4-3.4,4-5.8,4.7l-5.3,1.6c-1,0.3-2,0.5-2.9,0.4
		c-1.5,0-3.1-0.4-4.6-1.1c-2.1-1.3-3.7-3.2-4.7-5.5l-1.3-4.9c-0.8-3-2.7-5.2-5.6-6.6c-2.1-1.1-4.2-1.6-6.3-1.6
		c-1.1,0-2.3,0.2-3.5,0.4l-5.5,1.4c-1,0.2-2,0.3-3,0.3c-1.5,0-3-0.3-4.5-0.8c-2.1-1.4-3.4-3.1-3.8-5.2l-0.8-4.6
		c-0.4-2.3,0.2-4.3,1.6-5.9c1.6-1.9,3.7-3.2,6.2-3.7l5.3-1c3.4-0.7,6-2.2,7.7-4.4c1.7-2.2,2.2-4.5,1.6-6.9l-1-3.7
		c-0.4-1.6,0-3.3,1.3-4.9c1.4-1.3,3.1-2.2,5.1-2.5l4.4-0.7C172.2,241.2,172.8,241.1,173.4,241.1"/>
</g>
<g id="surface4">
	<text transform="matrix(1 0 0 1 93 416.9)" class="st2 st4 st5">sci</text>
	<text transform="matrix(1 0 0 1 112.75 449.45)" class="st2 st4 st6">http://sciBASIC.NET</text>
	<text transform="matrix(1 0 0 1 154 418)" class="st1 st4 st7">BASIC#</text>
</g>
</svg>
